<svg width="35" height="35" viewBox="0 0 35 35" fill="none" xmlns="http://www.w3.org/2000/svg">
<g clip-path="url(#clip0_716_1700)">
<path d="M4.37534 4.12891C3.21501 4.12891 2.10221 4.58984 1.28174 5.41031C0.461272 6.23079 0.000335693 7.34358 0.000335693 8.50391V10.6914H35.0003V8.50391C35.0003 7.34358 34.5394 6.23079 33.7189 5.41031C32.8985 4.58984 31.7857 4.12891 30.6253 4.12891H4.37534Z" fill="#FFBDBF"/>
<path fill-rule="evenodd" clip-rule="evenodd" d="M35.0003 15.0664H0.000335693V26.0039C0.000335693 27.1642 0.461272 28.277 1.28174 29.0975C2.10221 29.918 3.21501 30.3789 4.37534 30.3789H30.6253C31.7857 30.3789 32.8985 29.918 33.7189 29.0975C34.5394 28.277 35.0003 27.1642 35.0003 26.0039V15.0664ZM4.37534 23.8164C4.37534 23.2362 4.6058 22.6798 5.01604 22.2696C5.42628 21.8594 5.98267 21.6289 6.56284 21.6289H8.75034C9.3305 21.6289 9.8869 21.8594 10.2971 22.2696C10.7074 22.6798 10.9378 23.2362 10.9378 23.8164C10.9378 24.3966 10.7074 24.953 10.2971 25.3632C9.8869 25.7734 9.3305 26.0039 8.75034 26.0039H6.56284C5.98267 26.0039 5.42628 25.7734 5.01604 25.3632C4.6058 24.953 4.37534 24.3966 4.37534 23.8164ZM15.3128 21.6289C14.7327 21.6289 14.1763 21.8594 13.766 22.2696C13.3558 22.6798 13.1253 23.2362 13.1253 23.8164C13.1253 24.3966 13.3558 24.953 13.766 25.3632C14.1763 25.7734 14.7327 26.0039 15.3128 26.0039H17.5003C18.0805 26.0039 18.6369 25.7734 19.0471 25.3632C19.4574 24.953 19.6878 24.3966 19.6878 23.8164C19.6878 23.2362 19.4574 22.6798 19.0471 22.2696C18.6369 21.8594 18.0805 21.6289 17.5003 21.6289H15.3128Z" fill="#FFBDBF"/>
</g>
<defs>
<clipPath id="clip0_716_1700">
<rect width="35" height="35" fill="white"/>
</clipPath>
</defs>
</svg>
