<svg width="512" height="512" viewBox="0 0 512 512" fill="none" xmlns="http://www.w3.org/2000/svg">
<path fill-rule="evenodd" clip-rule="evenodd" d="M300.4 164.262C299.205 170.963 295.217 174.762 288.434 175.658C277.731 172.414 267.095 168.995 256.525 165.402C246.146 168.471 235.889 171.889 225.756 175.658C221.147 175.07 217.729 172.791 215.499 168.821C215.12 157.045 214.739 145.268 214.36 133.493C208.558 125.311 202.481 117.334 196.126 109.561C195.559 106.163 195.368 102.745 195.556 99.3048C197.24 96.6758 199.519 94.5866 202.394 93.037C212.41 90.155 222.287 86.926 232.024 83.3504C237.88 74.645 243.959 66.098 250.257 57.7094C254.816 55.4302 259.374 55.4302 263.932 57.7094C270.833 66.5099 277.291 75.6267 283.306 85.0598C293.615 87.9218 303.871 90.9608 314.075 94.1766C318.197 97.6621 319.906 102.031 319.203 107.282C313.023 116.222 306.566 124.958 299.83 133.493C299.488 143.752 299.678 154.008 300.4 164.262Z" fill="#FDFDFD"/>
<path fill-rule="evenodd" clip-rule="evenodd" d="M114.644 94.7463C117.706 94.5593 120.746 94.7493 123.761 95.3161C129.839 103.293 135.917 111.271 141.995 119.248C149.921 121.704 157.898 123.983 165.926 126.085C171.441 129.748 172.771 134.496 169.915 140.33C164.977 146.788 160.038 153.245 155.1 159.704C154.721 169.581 154.34 179.456 153.961 189.333C151.065 194.54 146.696 196.249 140.855 194.461C133.44 191.42 125.843 188.95 118.063 187.054C109.274 189.536 100.537 192.196 91.8523 195.031C87.8676 194.285 85.0186 192.006 83.3053 188.194C82.9255 178.317 82.5455 168.441 82.1657 158.564C77.3334 153.075 72.775 147.377 68.4905 141.47C65.637 135.606 66.5866 130.477 71.3395 126.085C80.0764 123.427 88.8133 120.767 97.5503 118.108C102.59 109.695 108.288 101.908 114.644 94.7463Z" fill="#FDFCFC"/>
<path fill-rule="evenodd" clip-rule="evenodd" d="M431.454 165.401C431.644 173.388 431.454 181.365 430.885 189.333C427.67 194.077 423.301 195.787 417.779 194.461C410.277 191.658 402.679 189.188 394.987 187.054C386.319 189.944 377.582 192.603 368.776 195.031C363.591 194.781 360.552 192.123 359.659 187.054C359.849 177.929 359.659 168.812 359.09 159.703C354.152 153.245 349.213 146.788 344.275 140.33C341.419 134.495 342.749 129.748 348.263 126.085C356.703 123.652 365.06 120.993 373.335 118.108C378.756 110.307 384.454 102.709 390.429 95.316C394.376 94.3854 398.176 94.7652 401.825 96.4556C406.922 104.022 412.24 111.429 417.779 118.678C425.697 121.322 433.674 123.791 441.711 126.085C446.918 128.981 448.627 133.35 446.839 139.191C442.177 145.854 437.239 152.311 432.024 158.564C431.46 160.812 431.27 163.091 431.454 165.401Z" fill="#FDFCFC"/>
<path fill-rule="evenodd" clip-rule="evenodd" d="M249.118 217.823C277.838 216.385 297.402 228.92 307.808 255.43C313.201 280.672 305.414 300.615 284.446 315.259C278.07 318.903 271.232 321.182 263.933 322.096C305.83 324.501 331.851 345.963 341.996 386.484C342.756 402.438 342.756 418.393 341.996 434.347C338.874 444.687 332.226 451.715 322.053 455.43C278.748 456.19 235.443 456.19 192.138 455.43C182.451 451.821 175.804 445.173 172.195 435.487C171.435 418.772 171.435 402.059 172.195 385.344C182.414 347.02 207.295 325.937 246.839 322.096C212.595 310.793 199.49 287.431 207.523 252.011C215.851 233.594 229.715 222.198 249.118 217.823Z" fill="#FEFEFE"/>
<path fill-rule="evenodd" clip-rule="evenodd" d="M136.297 226.94C160.515 226.222 176.658 237.238 184.73 259.989C188.213 288.171 176.247 305.835 148.833 312.98C163.335 312.88 176.631 316.678 188.719 324.376C167.971 341.345 156.005 363.187 152.821 389.903C152.251 402.433 152.061 414.969 152.251 427.51C130.596 427.7 108.943 427.51 87.2942 426.94C77.6076 423.331 70.96 416.684 67.3512 406.997C60.7163 376.716 68.1237 350.695 89.5734 328.934C102.829 318.185 118.024 312.866 135.157 312.98C108.488 304.916 97.0919 287.062 100.969 259.419C106.823 241.973 118.599 231.146 136.297 226.94Z" fill="#FDFDFD"/>
<path fill-rule="evenodd" clip-rule="evenodd" d="M383.59 311.271C380.597 311.96 377.558 312.53 374.474 312.98C378.254 313.548 382.052 313.738 385.87 313.55C419.471 317.713 439.794 336.327 446.838 369.391C447.598 381.547 447.598 393.702 446.838 405.858C443.61 416.684 436.582 423.712 425.756 426.94C404.486 427.51 383.214 427.7 361.938 427.51C366.336 398.591 361.207 371.62 346.553 346.598C340.712 338.097 333.684 330.69 325.471 324.376C337.092 316.341 350.007 312.543 364.217 312.98C337.646 305.249 326.06 287.585 329.459 259.989C341.08 230.725 361.783 221.418 391.568 232.069C416.358 248.997 421.107 270.461 405.813 296.456C399.966 303.835 392.559 308.773 383.59 311.271Z" fill="#FEFDFD"/>
<path fill-rule="evenodd" clip-rule="evenodd" d="M383.59 311.271C384.351 312.031 385.11 312.79 385.87 313.55C382.052 313.738 378.254 313.547 374.474 312.98C377.559 312.53 380.597 311.96 383.59 311.271Z" fill="#806061"/>
</svg>
