<svg width="35" height="35" viewBox="0 0 35 35" fill="none" xmlns="http://www.w3.org/2000/svg">
<g clip-path="url(#clip0_716_1711)">
<path d="M10.1914 7.95703H4.31145L3.7254 12.1953H10.7775L10.1914 7.95703Z" fill="#FFBDBF"/>
<path d="M11.0705 14.2461H3.43239L2.55328 20.3984H11.9496L11.0705 14.2461Z" fill="#FFBDBF"/>
<path d="M6.22598 28.6016H8.27676V34.7539H6.22598V28.6016Z" fill="#FFBDBF"/>
<path d="M28.7846 11.3052L22.6323 15.4067V11.3052L14.4292 16.7736V22.4493H0.000335693V34.7539H4.17525V26.5508H10.3276V34.7539H35.0003V11.3052L28.7846 15.4067V11.3052ZM14.4292 30.6524H12.3784V26.5508H14.4292V30.6524ZM18.5307 30.6524H16.4799V26.5508H18.5307V30.6524ZM22.6323 30.6524H20.5815V26.5508H22.6323V30.6524ZM22.6323 24.5H20.5815V20.3985H22.6323V24.5ZM26.7338 30.6524H24.6831V26.5508H26.7338V30.6524ZM26.7338 24.5H24.6831V20.3985H26.7338V24.5ZM30.8354 30.6524H28.7846V26.5508H30.8354V30.6524ZM30.8354 20.3985V24.5H28.7846V20.3985H30.8354Z" fill="#FFBDBF"/>
<path d="M12.3783 -0.246094H10.3275V0.779297C10.3275 1.34504 9.8679 1.80469 9.30215 1.80469C7.60589 1.80469 6.22598 3.18459 6.22598 4.88086V5.90625H8.27676V4.88086C8.27676 4.31512 8.73641 3.85547 9.30215 3.85547C10.9984 3.85547 12.3783 2.47557 12.3783 0.779297V-0.246094Z" fill="#FFBDBF"/>
</g>
<defs>
<clipPath id="clip0_716_1711">
<rect width="35" height="35" fill="white"/>
</clipPath>
</defs>
</svg>
