<svg width="35" height="35" viewBox="0 0 35 35" fill="none" xmlns="http://www.w3.org/2000/svg">
<g clip-path="url(#clip0_696_1581)">
<path d="M27.4805 28.875C26.3352 28.875 25.3529 29.5829 24.9463 30.584H22.5586V32.6348H24.9463C25.3529 33.6358 26.3352 34.3438 27.4805 34.3438C28.9882 34.3438 30.2148 33.1171 30.2148 31.6094C30.2148 30.1016 28.9882 28.875 27.4805 28.875Z" fill="#E41F26"/>
<path d="M32.2656 23.0645C31.8162 23.0645 31.3921 23.1741 31.0177 23.3671L28.4787 21.2513C28.2944 21.0978 28.0621 21.0137 27.8223 21.0137H22.5586V23.0645H27.451L29.6771 24.9196C29.5831 25.1957 29.5312 25.4912 29.5312 25.7988C29.5312 27.3066 30.7579 28.5332 32.2656 28.5332C33.7734 28.5332 35 27.3066 35 25.7988C35 24.2911 33.7734 23.0645 32.2656 23.0645Z" fill="#E41F26"/>
<path d="M32.2656 14.5195C31.1204 14.5195 30.138 15.2275 29.7315 16.2285H22.5586V18.2793H29.7315C30.138 19.2804 31.1204 19.9883 32.2656 19.9883C33.7734 19.9883 35 18.7616 35 17.2539C35 15.7462 33.7734 14.5195 32.2656 14.5195Z" fill="#E41F26"/>
<path d="M28.4787 13.2565L31.0177 11.1407C31.3921 11.3337 31.8162 11.4434 32.2656 11.4434C33.7734 11.4434 35 10.2167 35 8.70898C35 7.20125 33.7734 5.97461 32.2656 5.97461C30.7579 5.97461 29.5312 7.20125 29.5312 8.70898C29.5312 9.0166 29.5831 9.31212 29.6771 9.58822L27.451 11.4434H22.5586V13.4941H27.8223C28.0621 13.4941 28.2944 13.4101 28.4787 13.2565Z" fill="#E41F26"/>
<path d="M27.4805 5.63281C28.9882 5.63281 30.2148 4.40617 30.2148 2.89844C30.2148 1.3907 28.9882 0.164062 27.4805 0.164062C26.3352 0.164062 25.3529 0.871992 24.9463 1.87305H22.5586V3.92383H24.9463C25.3529 4.92488 26.3352 5.63281 27.4805 5.63281Z" fill="#E41F26"/>
<path d="M10.2539 17.2539C10.2539 21.2117 13.4738 24.4316 17.4316 24.4316C18.5319 24.4316 19.5749 24.1825 20.5078 23.7381V10.7697C19.5749 10.3253 18.5319 10.0762 17.4316 10.0762C13.4738 10.0762 10.2539 13.2961 10.2539 17.2539Z" fill="#E41F26"/>
<path d="M19.4824 -0.177734H15.3809C14.8146 -0.177734 14.3555 0.281367 14.3555 0.847656V2.18237C12.4314 2.57435 10.59 3.33717 8.94988 4.42176L8.00584 3.47778C7.60539 3.07733 6.95618 3.07733 6.55573 3.47778L3.65552 6.378C3.25507 6.77838 3.25507 7.42766 3.65552 7.82811L4.59949 8.77215C3.5149 10.4123 2.75208 12.2536 2.36011 14.1777H1.02539C0.459102 14.1777 0 14.6368 0 15.2031V19.3047C0 19.871 0.459102 20.3301 1.02539 20.3301H2.36011C2.75208 22.2542 3.5149 24.0955 4.59949 25.7357L3.65545 26.6798C3.46315 26.8721 3.35515 27.1329 3.35515 27.4048C3.35515 27.6767 3.46315 27.9375 3.65545 28.1297L6.55573 31.03C6.95618 31.4305 7.60539 31.4305 8.00584 31.03L8.94988 30.0861C10.59 31.1706 12.4314 31.9334 14.3555 32.3254V33.6602C14.3555 34.2264 14.8146 34.6855 15.3809 34.6855H19.4824C20.0487 34.6855 20.5078 34.2264 20.5078 33.6602V25.9546C19.5452 26.2959 18.5099 26.4824 17.4316 26.4824C12.343 26.4824 8.20312 22.3425 8.20312 17.2539C8.20312 12.1653 12.343 8.02539 17.4316 8.02539C18.5099 8.02539 19.5452 8.21188 20.5078 8.55326V0.847656C20.5078 0.281367 20.0487 -0.177734 19.4824 -0.177734Z" fill="#E41F26"/>
</g>
<defs>
<clipPath id="clip0_696_1581">
<rect width="35" height="35" fill="white"/>
</clipPath>
</defs>
</svg>
