<svg width="35" height="35" viewBox="0 0 35 35" fill="none" xmlns="http://www.w3.org/2000/svg">
<g clip-path="url(#clip0_696_1577)">
<path fill-rule="evenodd" clip-rule="evenodd" d="M32.7237 -0.246094H8.8603C8.43267 -0.246094 8.08392 0.107309 8.08392 0.540642V7.37905L12.4158 14.982L12.5716 16.8515H14.4869V19.9107H11.4681V19.5796C11.0745 19.6606 10.6587 19.5785 10.3164 19.3371L8.08392 17.7631V29.2272H28.979L28.9309 30.3849C28.9015 31.095 28.9125 31.9923 29.2031 32.653C29.9203 34.2836 33.5 34.285 33.5 31.0576V0.540642C33.5001 0.107309 33.1513 -0.246094 32.7237 -0.246094ZM11.0711 14.8439L8.44713 16.3791L2.64418 6.19425L5.26814 4.65911L11.0711 14.8439ZM4.7212 3.69911L4.21579 2.8121C4.02623 2.47932 3.60374 2.36467 3.27541 2.55675L1.84388 3.39432C1.51555 3.58641 1.40234 4.01453 1.5919 4.34731L2.09731 5.23432L4.7212 3.69911ZM9.21721 17.2085L11.3948 15.9345L11.5717 18.057C11.6002 18.3989 11.2206 18.621 10.9426 18.425L9.21721 17.2085ZM2.32469 30.3383H27.8355C27.762 32.1118 27.9571 34.4716 30.6204 34.7539L5.20434 34.6701C3.35402 34.5495 2.11211 33.1959 2.32469 30.3383ZM13.5779 2.79175H28.0263V6.34543H13.5779V2.79175ZM11.4682 23.6097H14.487V26.6688H11.4682V23.6097ZM11.4682 10.0934H14.487V13.1524H11.4682V10.0934ZM30.136 12.3418C30.4388 12.3418 30.6843 12.5905 30.6843 12.8973C30.6843 13.2041 30.4388 13.4529 30.136 13.4529H17.0686C16.7658 13.4529 16.5204 13.2041 16.5204 12.8973C16.5204 12.5905 16.7658 12.3418 17.0686 12.3418H30.136ZM30.136 25.8582C30.4388 25.8582 30.6843 26.107 30.6843 26.4138C30.6843 26.7206 30.4388 26.9693 30.136 26.9693H17.0686C16.7658 26.9693 16.5204 26.7206 16.5204 26.4138C16.5204 26.107 16.7658 25.8582 17.0686 25.8582H30.136ZM30.136 23.3093C30.4388 23.3093 30.6843 23.5581 30.6843 23.8649C30.6843 24.1717 30.4388 24.4204 30.136 24.4204H17.0686C16.7658 24.4204 16.5204 24.1717 16.5204 23.8649C16.5204 23.5581 16.7658 23.3093 17.0686 23.3093H30.136ZM30.136 19.1C30.4388 19.1 30.6843 19.3488 30.6843 19.6556C30.6843 19.9624 30.4388 20.2111 30.136 20.2111H17.0686C16.7658 20.2111 16.5204 19.9624 16.5204 19.6556C16.5204 19.3488 16.7658 19.1 17.0686 19.1H30.136ZM30.136 16.5511C30.4388 16.5511 30.6843 16.7999 30.6843 17.1067C30.6843 17.4135 30.4388 17.6622 30.136 17.6622H17.0686C16.7658 17.6622 16.5204 17.4135 16.5204 17.1067C16.5204 16.7999 16.7658 16.5511 17.0686 16.5511H30.136ZM30.136 9.79293C30.4388 9.79293 30.6843 10.0417 30.6843 10.3485C30.6843 10.6553 30.4388 10.904 30.136 10.904H17.0686C16.7658 10.904 16.5204 10.6553 16.5204 10.3485C16.5204 10.0417 16.7658 9.79293 17.0686 9.79293H30.136Z" fill="#E41F26"/>
</g>
<defs>
<clipPath id="clip0_696_1577">
<rect width="35" height="35" fill="white"/>
</clipPath>
</defs>
</svg>
