<svg width="35" height="35" viewBox="0 0 35 35" fill="none" xmlns="http://www.w3.org/2000/svg">
<path fill-rule="evenodd" clip-rule="evenodd" d="M25.6281 22.6052C25.6931 24.3828 24.2635 25.9341 22.3933 25.9341H3.23842C0.748851 25.9341 -0.806584 23.2536 0.438165 21.1105L10.0166 4.60735C11.2594 2.46422 14.3703 2.46422 15.6151 4.60735L17.3695 7.6292C16.9674 8.02711 16.608 8.45538 16.2932 8.91187L14.2484 5.39306C13.6108 4.29217 12.0208 4.29217 11.3812 5.39306L1.80477 21.8942C1.16513 22.9951 1.96115 24.3646 3.23842 24.3646H22.3933C23.301 24.3646 23.9976 23.6596 24.0504 22.8152C24.5783 22.793 25.1063 22.7244 25.6281 22.6052V22.6052ZM23.1873 22.8112C23.1386 23.193 22.8197 23.5102 22.3933 23.5102H3.23842C2.62113 23.5102 2.24139 22.8536 2.54799 22.3224L12.1265 5.81934C12.4351 5.2881 13.1966 5.29009 13.5052 5.81934L15.7836 9.74618C14.3744 12.366 14.3154 15.6303 15.9156 18.3856C17.4813 21.0863 20.2693 22.6578 23.1874 22.8113L23.1873 22.8112ZM13.9337 20.3246C13.9337 19.7106 13.4321 19.2136 12.8148 19.2136C12.1975 19.2136 11.6979 19.7105 11.6979 20.3246C11.6979 20.9387 12.1974 21.4376 12.8148 21.4376C13.4322 21.4376 13.9337 20.9407 13.9337 20.3246ZM14.2078 11.6772C14.2078 10.9156 13.5804 10.2935 12.8148 10.2935C12.0492 10.2935 11.4238 10.9157 11.4238 11.6772L12.0432 17.5149H13.5885L14.2079 11.6772H14.2078ZM30.2681 22.48L29.3035 20.8175C28.5502 21.4296 27.7095 21.9124 26.7998 22.2537L27.7643 23.9181L30.2681 22.4799V22.48ZM19.5849 13.9638C19.5849 14.1516 19.6743 14.79 19.721 14.9819C19.7616 15.1415 19.7068 15.3151 19.5667 15.4222L18.9351 15.9069C19.1037 16.3069 19.3189 16.6785 19.5849 17.024L20.3078 16.7291C20.4642 16.6564 20.6571 16.6867 20.785 16.8139C21.0164 17.0422 21.317 17.2806 21.6013 17.4361C21.7455 17.5189 21.8327 17.6825 21.8104 17.8583L21.7089 18.6461C22.1089 18.8077 22.5334 18.9208 22.9618 18.9794L23.2684 18.2482C23.3334 18.0947 23.4857 17.9856 23.6644 17.9856C24.0035 17.9856 24.3466 17.9411 24.6797 17.8543C24.8482 17.8098 25.0229 17.8664 25.1305 18.0038L25.6178 18.632C26.0889 18.436 26.3224 18.2644 26.7408 17.9877L26.5194 17.4524C26.3164 17.4787 26.1173 17.3554 26.0544 17.1574C25.9428 16.806 25.8474 16.4323 25.7478 16.0768C24.5742 17.2221 22.6897 17.214 21.5262 16.0566C20.9414 15.4748 20.6469 14.7113 20.6469 13.9457C20.6469 11.847 22.777 10.4027 24.7406 11.1683L25.5671 10.3482C25.5001 10.2613 25.4676 10.1502 25.4818 10.0331L25.5833 9.24729C25.1833 9.08568 24.7609 8.97259 24.3304 8.91401C24.2289 9.15843 24.1273 9.41696 24.0177 9.65533C23.9507 9.80276 23.8024 9.90581 23.6278 9.90581C23.2582 9.90581 22.9597 9.95832 22.6003 10.0411C22.4419 10.0795 22.2673 10.025 22.1617 9.88763L21.6743 9.25941C21.2763 9.42708 20.8966 9.64521 20.5514 9.90581L20.8499 10.6249C20.9209 10.7804 20.8925 10.9723 20.7625 11.1016C20.5209 11.342 20.3097 11.6187 20.1371 11.9116C20.0518 12.0591 19.8833 12.1419 19.7127 12.1197L18.9208 12.0187C18.7583 12.4166 18.6446 12.8389 18.5877 13.2651L19.3208 13.5701C19.4751 13.6347 19.5848 13.7862 19.5848 13.964L19.5849 13.9638ZM27.1043 16.4544L27.7602 16.9028C28.0912 16.62 28.3796 16.3029 28.6293 15.9474L28.1318 15.3595C28.01 15.2323 27.9754 15.0384 28.0608 14.8727C28.2456 14.5131 28.2984 14.293 28.408 13.9112C28.4445 13.7476 28.5745 13.6142 28.7491 13.5819L29.533 13.4385C29.5655 13.0082 29.5451 12.574 29.47 12.1518L28.6882 12.0851C28.5095 12.071 28.3593 11.9639 28.3024 11.7902C28.2679 11.6811 28.2292 11.5801 28.1907 11.4852L27.1754 11.8104C27.7216 13.0244 27.4029 14.4283 26.4159 15.2888L26.7307 16.3977C26.8525 16.3593 26.9906 16.3755 27.1043 16.4543V16.4544ZM19.6134 6.99491C23.4715 4.77902 28.406 6.09604 30.6336 9.93395C32.8612 13.7719 31.5393 18.6804 27.681 20.8963C23.8228 23.1122 18.8864 21.7972 16.6587 17.9592C14.4311 14.1213 15.753 9.21081 19.6133 6.99491H19.6134ZM17.6985 13.5052C17.6843 13.687 17.7919 13.8607 17.9624 13.9294L18.7381 14.2526L18.8254 14.9152L18.1675 15.4201C18.0193 15.5292 17.9543 15.7231 18.0172 15.9029C18.2589 16.5917 18.6386 17.2461 19.1138 17.8017C19.2397 17.9491 19.4285 18.0098 19.6154 17.933L20.391 17.6158L20.9272 18.0219L20.8196 18.852C20.7952 19.0298 20.8886 19.2096 21.0592 19.2904C21.7354 19.6135 22.4501 19.8054 23.1954 19.862C23.3842 19.8761 23.5569 19.7751 23.6299 19.5994L23.9548 18.8278L24.6209 18.7429L25.1286 19.3974C25.2361 19.5428 25.4332 19.6095 25.6139 19.5469C26.3124 19.3025 26.9663 18.9288 27.5288 18.4501C27.673 18.3269 27.7278 18.135 27.6547 17.9572L27.5978 17.8198C27.7379 17.8845 27.9065 17.8724 28.0384 17.7734C28.6496 17.3148 29.1126 16.7917 29.5228 16.1493C29.6243 15.9937 29.6162 15.7857 29.4903 15.6382L28.9502 15.0019C29.0395 14.7959 29.1147 14.5859 29.1756 14.3697L29.9878 14.2202C30.1727 14.1939 30.3229 14.0485 30.3493 13.8566C30.4001 13.489 30.4163 13.1193 30.398 12.7516C30.3798 12.3961 30.3311 12.0406 30.2477 11.6911C30.2213 11.4973 30.0629 11.3417 29.8578 11.3255L29.0212 11.2548L28.7998 10.774C28.7145 10.5862 28.479 10.4993 28.2861 10.5599L26.4321 11.1538C26.1255 11.2426 26.026 11.58 26.1905 11.8103C26.8748 12.7779 26.6352 14.1191 25.6828 14.7776C25.5508 14.8686 25.5102 15.02 25.3721 15.2059C24.9619 15.7614 24.3141 16.0745 23.6461 16.0745C22.4663 16.0745 21.5038 15.121 21.5038 13.9455C21.5038 12.8971 22.2754 12.0002 23.3171 11.8426C23.7557 11.776 24.2065 11.8407 24.6065 12.0406C24.773 12.1456 24.9944 12.1255 25.1406 11.982C25.5995 11.5235 26.1031 11.0549 26.5437 10.5842C26.7184 10.3964 26.6899 10.0934 26.4767 9.94386C26.4463 9.92162 26.4098 9.8974 26.3671 9.86911L26.4747 9.03893C26.497 8.8632 26.4036 8.68341 26.233 8.60261C25.5609 8.28144 24.8502 8.08954 24.109 8.03096C23.9141 8.01685 23.7395 8.10771 23.6623 8.29156L23.3374 9.06316L22.6714 9.15002L22.1637 8.49557C22.0561 8.34814 21.8591 8.2835 21.6783 8.34607C20.9777 8.5885 20.328 8.96218 19.7655 9.44091C19.6193 9.56411 19.5645 9.75602 19.6376 9.93581L19.9584 10.7074L19.5482 11.2406L18.7137 11.1336C18.5349 11.1114 18.3563 11.2023 18.273 11.372C17.9482 12.0467 17.7553 12.7597 17.6984 13.5051L17.6985 13.5052ZM34.6908 28.7579L31.2813 22.8859L27.61 24.9927L31.0194 30.8647C31.6327 31.9212 32.9587 32.311 33.9699 31.7313C34.9791 31.1516 35.302 29.8144 34.6908 28.7579Z" fill="#FFBDBF"/>
</svg>
