<svg width="35" height="35" viewBox="0 0 35 35" fill="none" xmlns="http://www.w3.org/2000/svg">
<g clip-path="url(#clip0_696_1573)">
<path d="M14.0866 4.7002C9.04579 4.7002 4.9447 8.80128 4.9447 13.8421C4.9447 18.8829 9.04579 22.984 14.0866 22.984C19.1274 22.984 23.2285 18.883 23.2285 13.8421C23.2285 8.80121 19.1276 4.7002 14.0866 4.7002ZM19.6582 13.8421C19.6582 10.77 17.1588 8.27054 14.0866 8.27054V6.19125C18.3053 6.19125 21.7375 9.62344 21.7375 13.8421H19.6582Z" fill="#E41F26"/>
<path d="M33.9495 28.6316L27.5717 22.2538L25.7709 24.0546L24.7525 23.0362C26.8844 20.5668 28.1754 17.3522 28.1754 13.8415C28.1754 6.07366 21.8557 -0.246094 14.0877 -0.246094C6.31976 -0.246094 0 6.07366 0 13.8416C0 21.6096 6.31976 27.9292 14.0876 27.9292C17.5982 27.9292 20.8128 26.6383 23.2822 24.5064L24.3007 25.5248L22.4999 27.3256L28.8777 33.7034C29.5551 34.3807 30.4557 34.7538 31.4137 34.7538C32.3716 34.7538 33.2722 34.3808 33.9496 33.7034C34.6269 33.0261 35 32.1255 35 31.1676C35 30.2096 34.6269 29.3089 33.9495 28.6316ZM14.0876 25.0628C7.90029 25.0628 2.86645 20.029 2.86645 13.8416C2.86645 7.6542 7.90029 2.62042 14.0876 2.62042C20.275 2.62042 25.3088 7.65427 25.3088 13.8416C25.3088 20.029 20.2751 25.0628 14.0876 25.0628Z" fill="#E41F26"/>
</g>
<defs>
<clipPath id="clip0_696_1573">
<rect width="35" height="35" fill="white"/>
</clipPath>
</defs>
</svg>
