<svg width="512" height="512" viewBox="0 0 512 512" fill="none" xmlns="http://www.w3.org/2000/svg">
<path fill-rule="evenodd" clip-rule="evenodd" d="M460.159 299.352C461.292 305.712 459.742 311.137 455.509 315.628C432.336 319.847 427.427 331.472 440.784 350.503C441.818 352.569 441.818 354.637 440.784 356.703C434.325 363.162 427.868 369.619 421.409 376.078C419.343 377.112 417.275 377.112 415.209 376.078C396.178 362.722 384.553 367.63 380.334 390.803C379.266 392.131 377.975 393.164 376.459 393.903C372.37 381.787 369.27 369.387 367.159 356.703C365.412 349.001 363.862 341.251 362.509 333.453C377.703 333.501 388.811 326.785 395.834 313.303C403.147 277.214 388.422 260.422 351.658 262.927C340.892 267.232 333.658 274.723 329.958 285.402C315.729 282.291 301.779 278.416 288.108 273.777C289.863 270.005 291.413 266.13 292.758 262.152C290.863 256.809 288.538 251.643 285.783 246.652C284.749 243.552 284.749 240.452 285.783 237.352C291.208 231.927 296.633 226.502 302.058 221.077C305.674 220.043 309.292 220.043 312.908 221.077C320.444 228.653 328.712 229.686 337.708 224.177C340.858 218.053 343.183 211.594 344.683 204.802C345.975 203.511 347.267 202.218 348.558 200.927C357.859 199.893 367.159 199.893 376.459 200.927C377.75 202.218 379.042 203.511 380.334 204.802C383.73 226.781 394.839 232.206 413.659 221.077C416.759 220.043 419.859 220.043 422.959 221.077C428.9 227.018 434.843 232.961 440.784 238.902C440.44 246.334 437.856 253.052 433.034 259.052C432.587 264.902 434.395 270.068 438.459 274.552C445.966 276.617 452.941 279.717 459.384 283.852C460.156 288.994 460.415 294.16 460.159 299.352Z" fill="#FCFBFB"/>
<path d="M170.308 56.7749C192.007 55.7415 213.707 55.7415 235.407 56.7749C280.664 69.8019 301.331 100.027 297.408 147.451C296.587 154.871 298.395 161.587 302.833 167.601C304.881 184.174 298.164 195.542 282.683 201.702C280.153 224.855 269.303 242.939 250.133 255.952C249.099 259.568 249.099 263.185 250.133 266.801C255.683 273.392 262.142 278.817 269.508 283.077C287.46 288.175 305.544 292.825 323.758 297.027C332.903 299.662 339.878 305.087 344.683 313.302C349.069 329.92 352.944 346.453 356.308 362.903C359.908 382.196 363.009 401.571 365.608 421.028C366.783 439.368 358.516 450.734 340.808 455.128C329.452 455.903 318.086 456.16 306.708 455.903C311.498 416.922 316.148 377.913 320.658 338.877C319.683 329.099 314.517 322.382 305.158 318.727C240.574 317.693 175.991 317.693 111.407 318.727C102.158 322.239 97.5074 328.956 97.457 338.877C101.469 377.984 106.119 416.991 111.407 455.903C98.9966 456.16 86.5963 455.903 74.207 455.128C55.9892 447.371 48.4971 433.679 51.7314 414.053C57.6146 385.153 63.2988 356.219 68.7822 327.252C70.4136 313.746 77.3884 304.186 89.707 298.577C110.356 292.897 131.022 287.214 151.707 281.527C157.132 276.102 162.557 270.677 167.982 265.251C168.919 257.466 165.559 252.041 157.907 248.977C153.984 243.772 149.85 238.864 145.507 234.251C139.496 223.635 135.879 212.269 134.657 200.151C132.529 200.394 130.461 200.136 128.457 199.376C113.445 188.229 110.603 174.537 119.932 158.301C120.448 140.735 120.966 123.168 121.482 105.601C126.27 92.7829 135.311 85.5496 148.607 83.9009C150.477 70.6188 157.711 61.5764 170.308 56.7749ZM233.855 263.702C216.254 269.836 198.687 269.837 181.155 263.702C179.92 279.065 186.121 290.173 199.756 297.027C225.387 300.069 236.752 288.962 233.855 263.702ZM167.206 122.651C159.779 133.193 155.903 145.077 155.581 158.301C154.806 159.076 154.031 159.851 153.256 160.625C147.056 161.142 140.856 161.66 134.656 162.176C123.942 171.735 124.459 180.517 136.206 188.526C140.092 188.67 143.451 189.961 146.281 192.401C147.834 220.796 161.527 240.687 187.356 252.077C236.417 260.727 264.576 240.318 271.832 190.851C285.96 189.14 291.642 181.39 288.882 167.601C287 165.2 284.675 163.393 281.907 162.176C275.83 161.862 269.887 161.086 264.082 159.851C263.566 153.135 263.048 146.417 262.532 139.701C260.723 135.826 257.882 132.984 254.007 131.175C224.778 131.138 195.846 128.297 167.206 122.651Z" fill="#FCFBFB"/>
<path d="M114.507 330.353C177.026 330.094 239.543 330.353 302.058 331.128C303.477 331.708 304.77 332.483 305.933 333.453C306.191 336.294 306.448 339.137 306.707 341.978C302.556 379.833 297.906 417.55 292.757 455.129C236.442 455.904 180.126 456.162 123.807 455.903C119.668 416.848 115.018 377.839 109.856 338.878C110.419 335.48 111.969 332.637 114.507 330.353ZM204.407 378.402C196.039 383.28 193.198 390.514 195.883 400.103C203.555 409.834 211.821 410.349 220.683 401.652C225.244 387.025 219.819 379.275 204.407 378.402Z" fill="#FDFCFC"/>
</svg>
