<svg width="35" height="35" viewBox="0 0 35 35" fill="none" xmlns="http://www.w3.org/2000/svg">
<g clip-path="url(#clip0_675_2946)">
<path d="M6.14325 15.6899H5.32256C5.19806 16.042 4.96769 16.347 4.66303 16.5631C4.35837 16.7792 3.99434 16.8957 3.62084 16.8968H2.41394V22.3278C2.41394 22.4879 2.47752 22.6413 2.59069 22.7545C2.70385 22.8677 2.85734 22.9313 3.01739 22.9313H31.9829C32.143 22.9313 32.2964 22.8677 32.4096 22.7545C32.5228 22.6413 32.5864 22.4879 32.5864 22.3278V16.8968H31.3795C31.006 16.8957 30.6419 16.7792 30.3373 16.5631C30.0326 16.347 29.8022 16.042 29.6777 15.6899H28.857C28.7325 16.042 28.5022 16.347 28.1975 16.5631C27.8929 16.7792 27.5288 16.8957 27.1553 16.8968H25.9484C25.5749 16.8957 25.2109 16.7792 24.9062 16.5631C24.6016 16.347 24.3712 16.042 24.2467 15.6899H22.9312V19.3106C22.9312 19.4706 22.8676 19.6241 22.7544 19.7373C22.6413 19.8504 22.4878 19.914 22.3277 19.914H12.6726C12.5125 19.914 12.359 19.8504 12.2459 19.7373C12.1327 19.6241 12.0691 19.4706 12.0691 19.3106V15.6899H10.7536C10.6291 16.042 10.3987 16.347 10.0941 16.5631C9.78941 16.7792 9.42537 16.8957 9.05187 16.8968H7.84497C7.47147 16.8957 7.10744 16.7792 6.80278 16.5631C6.49812 16.347 6.26775 16.042 6.14325 15.6899Z" fill="#FFBDBF"/>
<path d="M20.5167 11.4656V9.65524C20.5167 8.85502 20.1988 8.08757 19.633 7.52173C19.0671 6.95589 18.2997 6.638 17.4995 6.638C16.6993 6.638 15.9318 6.95589 15.366 7.52173C14.8001 8.08757 14.4822 8.85502 14.4822 9.65524V11.4656H15.6891V9.65524C15.6891 9.17511 15.8799 8.71464 16.2194 8.37513C16.5589 8.03563 17.0193 7.8449 17.4995 7.8449C17.9796 7.8449 18.4401 8.03563 18.7796 8.37513C19.1191 8.71464 19.3098 9.17511 19.3098 9.65524V11.4656H20.5167Z" fill="#FFBDBF"/>
<path d="M9.05076 15.6898C9.21081 15.6898 9.3643 15.6262 9.47747 15.5131C9.59063 15.3999 9.65421 15.2464 9.65421 15.0864C9.65421 14.9263 9.59063 14.7728 9.47747 14.6597C9.3643 14.5465 9.21081 14.4829 9.05076 14.4829H7.84387C7.68382 14.4829 7.53033 14.5465 7.41716 14.6597C7.304 14.7728 7.24042 14.9263 7.24042 15.0864C7.24042 15.2464 7.304 15.3999 7.41716 15.5131C7.53033 15.6262 7.68382 15.6898 7.84387 15.6898H9.05076Z" fill="#FFBDBF"/>
<path d="M33.7931 16.4261V22.3278C33.7931 22.8079 33.6024 23.2684 33.2629 23.6079C32.9234 23.9474 32.4629 24.1382 31.9828 24.1382H3.01724C2.53711 24.1382 2.07664 23.9474 1.73713 23.6079C1.39763 23.2684 1.2069 22.8079 1.2069 22.3278V16.4261C0.983454 16.2255 0.813407 15.9725 0.712069 15.6899H0V22.3278C0 23.128 0.317887 23.8955 0.88373 24.4613C1.44957 25.0272 2.21702 25.3451 3.01724 25.3451H31.9828C32.783 25.3451 33.5504 25.0272 34.1163 24.4613C34.6821 23.8955 35 23.128 35 22.3278V15.6899H34.2879C34.1866 15.9725 34.0165 16.2255 33.7931 16.4261Z" fill="#FFBDBF"/>
<path d="M16.8969 9.65539V11.4657H18.1037V9.65539C18.1037 9.49534 18.0402 9.34185 17.927 9.22869C17.8138 9.11552 17.6603 9.05194 17.5003 9.05194C17.3403 9.05194 17.1868 9.11552 17.0736 9.22869C16.9604 9.34185 16.8969 9.49534 16.8969 9.65539Z" fill="#FFBDBF"/>
<path d="M24.1382 32.5861H10.8624C10.7023 32.5861 10.5488 32.6496 10.4357 32.7628C10.3225 32.876 10.2589 33.0295 10.2589 33.1895V34.9999H24.7417V33.1895C24.7417 33.0295 24.6781 32.876 24.5649 32.7628C24.4518 32.6496 24.2983 32.5861 24.1382 32.5861Z" fill="#FFBDBF"/>
<path d="M21.7242 26.5519H13.2759V31.3795H21.7242V26.5519Z" fill="#FFBDBF"/>
<path d="M27.1546 15.6898C27.3146 15.6898 27.4681 15.6262 27.5813 15.5131C27.6945 15.3999 27.758 15.2464 27.758 15.0864C27.758 14.9263 27.6945 14.7728 27.5813 14.6597C27.4681 14.5465 27.3146 14.4829 27.1546 14.4829H25.9477C25.7876 14.4829 25.6342 14.5465 25.521 14.6597C25.4078 14.7728 25.3442 14.9263 25.3442 15.0864C25.3442 15.2464 25.4078 15.3999 25.521 15.5131C25.6342 15.6262 25.7876 15.6898 25.9477 15.6898H27.1546Z" fill="#FFBDBF"/>
<path d="M1.81012 15.0864C1.81012 15.2464 1.8737 15.3999 1.98687 15.5131C2.10003 15.6262 2.25352 15.6898 2.41357 15.6898H3.62046C3.78051 15.6898 3.934 15.6262 4.04717 15.5131C4.16034 15.3999 4.22391 15.2464 4.22391 15.0864C4.22391 14.9263 4.16034 14.7728 4.04717 14.6597C3.934 14.5465 3.78051 14.4829 3.62046 14.4829H2.41357C2.25352 14.4829 2.10003 14.5465 1.98687 14.6597C1.8737 14.7728 1.81012 14.9263 1.81012 15.0864Z" fill="#FFBDBF"/>
<path d="M31.9828 0H3.01724C2.21702 0 1.44957 0.317887 0.88373 0.88373C0.317887 1.44957 0 2.21702 0 3.01724V14.4828H0.712069C0.813407 14.2001 0.983454 13.9471 1.2069 13.7466V3.01724C1.2069 2.53711 1.39763 2.07664 1.73713 1.73713C2.07664 1.39763 2.53711 1.2069 3.01724 1.2069H31.9828C32.4629 1.2069 32.9234 1.39763 33.2629 1.73713C33.6024 2.07664 33.7931 2.53711 33.7931 3.01724V13.7466C34.0165 13.9471 34.1866 14.2001 34.2879 14.4828H35V3.01724C35 2.21702 34.6821 1.44957 34.1163 0.88373C33.5504 0.317887 32.783 0 31.9828 0Z" fill="#FFBDBF"/>
<path d="M31.9829 2.41394H3.01739C2.85734 2.41394 2.70385 2.47752 2.59069 2.59069C2.47752 2.70385 2.41394 2.85734 2.41394 3.01739V13.276H3.62084C3.99434 13.2771 4.35837 13.3936 4.66303 13.6097C4.96769 13.8257 5.19806 14.1308 5.32256 14.4829H6.14325C6.26775 14.1308 6.49812 13.8257 6.80278 13.6097C7.10744 13.3936 7.47147 13.2771 7.84497 13.276H9.05187C9.42537 13.2771 9.78941 13.3936 10.0941 13.6097C10.3987 13.8257 10.6291 14.1308 10.7536 14.4829H12.0691V12.0691C12.0691 11.9091 12.1327 11.7556 12.2459 11.6424C12.359 11.5292 12.5125 11.4657 12.6726 11.4657H13.276V9.65532C13.276 8.53501 13.7211 7.46058 14.5132 6.6684C15.3054 5.87622 16.3798 5.43118 17.5001 5.43118C18.6205 5.43118 19.6949 5.87622 20.4871 6.6684C21.2792 7.46058 21.7243 8.53501 21.7243 9.65532V11.4657H22.3277C22.4878 11.4657 22.6413 11.5292 22.7544 11.6424C22.8676 11.7556 22.9312 11.9091 22.9312 12.0691V14.4829H24.2467C24.3712 14.1308 24.6016 13.8257 24.9062 13.6097C25.2109 13.3936 25.5749 13.2771 25.9484 13.276H27.1553C27.5288 13.2771 27.8929 13.3936 28.1975 13.6097C28.5022 13.8257 28.7325 14.1308 28.857 14.4829H29.6777C29.8022 14.1308 30.0326 13.8257 30.3373 13.6097C30.6419 13.3936 31.006 13.2771 31.3795 13.276H32.5864V3.01739C32.5864 2.85734 32.5228 2.70385 32.4096 2.59069C32.2964 2.47752 32.143 2.41394 31.9829 2.41394Z" fill="#FFBDBF"/>
<path d="M33.1898 15.0864C33.1898 14.9263 33.1262 14.7728 33.013 14.6597C32.8998 14.5465 32.7464 14.4829 32.5863 14.4829H31.3794C31.2194 14.4829 31.0659 14.5465 30.9527 14.6597C30.8395 14.7728 30.776 14.9263 30.776 15.0864C30.776 15.2464 30.8395 15.3999 30.9527 15.5131C31.0659 15.6262 31.2194 15.6898 31.3794 15.6898H32.5863C32.7464 15.6898 32.8998 15.6262 33.013 15.5131C33.1262 15.3999 33.1898 15.2464 33.1898 15.0864Z" fill="#FFBDBF"/>
<path d="M13.2759 18.7066H21.7242V12.6721H13.2759V18.7066ZM17.5001 13.879C17.8581 13.879 18.2081 13.9852 18.5059 14.1841C18.8036 14.383 19.0356 14.6658 19.1726 14.9966C19.3096 15.3274 19.3455 15.6914 19.2756 16.0425C19.2058 16.3937 19.0334 16.7163 18.7802 16.9695C18.527 17.2226 18.2044 17.3951 17.8533 17.4649C17.5021 17.5348 17.1381 17.4989 16.8073 17.3619C16.4765 17.2249 16.1938 16.9928 15.9948 16.6951C15.7959 16.3974 15.6897 16.0474 15.6897 15.6894C15.6897 15.2092 15.8805 14.7488 16.22 14.4093C16.5595 14.0697 17.0199 13.879 17.5001 13.879Z" fill="#FFBDBF"/>
<path d="M17.5003 16.293C17.8336 16.293 18.1037 16.0228 18.1037 15.6895C18.1037 15.3562 17.8336 15.0861 17.5003 15.0861C17.167 15.0861 16.8969 15.3562 16.8969 15.6895C16.8969 16.0228 17.167 16.293 17.5003 16.293Z" fill="#FFBDBF"/>
</g>
<defs>
<clipPath id="clip0_675_2946">
<rect width="35" height="35" fill="white"/>
</clipPath>
</defs>
</svg>
