<svg width="512" height="512" viewBox="0 0 512 512" fill="none" xmlns="http://www.w3.org/2000/svg">
<path d="M203.191 66.1025C254.937 47.1958 302.244 54.8263 345.111 88.9932C399.949 142.801 413.174 205.622 384.787 277.456C345.185 350.914 285.162 376.092 204.718 352.993C163.083 334.509 135.106 303.735 120.787 260.67C117.542 250.739 115.253 240.564 113.92 230.149C107.232 155.248 136.989 100.565 203.191 66.1025ZM255.077 88.2305C243.203 110.706 231.503 133.341 219.979 156.138C195.871 160.831 171.963 166.172 148.256 172.161C163.995 190.699 180.018 209.011 196.325 227.098C194.566 254.082 192.531 281.042 190.221 307.977C211.64 295.994 233.514 284.804 255.84 274.404C277.689 285.584 299.561 296.774 321.458 307.977C319.694 281.422 317.15 254.971 313.828 228.624C330.643 210.03 347.176 191.209 363.424 172.161C340.244 166.367 316.844 161.534 293.228 157.664C280.275 134.547 267.557 111.403 255.077 88.2305Z" fill="#FDFDFD"/>
<path fill-rule="evenodd" clip-rule="evenodd" d="M255.077 137.062C262.931 149.707 270.052 162.933 276.441 176.739C291.012 180.722 305.762 184.029 320.696 186.658C310.596 197.961 300.677 209.406 290.938 220.993C291.521 235.579 293.302 250.076 296.279 264.485C295.771 265.756 295.262 267.029 294.753 268.3C281.639 261.871 268.668 255.257 255.84 248.462C243.012 255.257 230.041 261.871 216.927 268.3C216.014 258.106 216.777 247.932 219.216 237.78C220.234 231.675 220.234 225.571 219.216 219.467C209.521 209.011 200.111 198.329 190.984 187.421C204.963 183.25 219.207 179.944 233.713 177.502C240.659 163.86 247.781 150.381 255.077 137.062Z" fill="#FCFBFB"/>
<path fill-rule="evenodd" clip-rule="evenodd" d="M155.887 350.705C164.096 356.861 172.744 362.456 181.829 367.491C183.823 376.476 183.823 385.377 181.829 394.196C173.808 398.989 165.161 401.786 155.887 402.589C155.887 385.295 155.887 367.999 155.887 350.705Z" fill="#FBF9F9"/>
<path fill-rule="evenodd" clip-rule="evenodd" d="M354.268 350.705C355.786 367.726 356.294 385.022 355.794 402.589C346.343 402.406 337.695 399.609 329.851 394.196C327.857 385.377 327.857 376.476 329.851 367.491C338.621 362.614 346.761 357.019 354.268 350.705Z" fill="#FCFBFB"/>
<path fill-rule="evenodd" clip-rule="evenodd" d="M305.436 378.173C306.431 404.674 305.415 430.616 302.384 456C295.451 454.789 288.839 452.5 282.546 449.133C272.737 442.383 263.835 434.498 255.841 425.479C243.672 440.99 228.157 451.164 209.297 456C207.266 443.834 206.248 431.116 206.245 417.849C206.248 404.582 207.266 391.864 209.297 379.699C241.464 388.202 273.51 387.694 305.436 378.173Z" fill="#FDFDFD"/>
</svg>
