<svg width="512" height="512" viewBox="0 0 512 512" fill="none" xmlns="http://www.w3.org/2000/svg">
<g clip-path="url(#clip0_656_1552)">
<path d="M213.333 512C210.524 512.029 207.737 511.496 205.136 510.434C202.534 509.372 200.171 507.802 198.185 505.815C196.198 503.829 194.628 501.466 193.566 498.864C192.504 496.263 191.971 493.476 192 490.667C192 490.283 192.021 488.853 192.064 488.469L212.138 298.667H106.666C103.857 298.695 101.07 298.163 98.4689 297.101C95.8678 296.039 93.5046 294.469 91.5179 292.482C89.5312 290.495 87.9609 288.132 86.8989 285.531C85.8369 282.93 85.3046 280.143 85.3331 277.333C85.3331 272.789 86.8905 268.117 89.6211 264.512L259.925 9.02411C264.256 3.20011 270.656 0.00011202 277.333 0.00011202C280.143 -0.0284127 282.93 0.503912 285.531 1.56591C288.132 2.62791 290.495 4.19824 292.482 6.18493C294.468 8.17162 296.039 10.5347 297.101 13.1359C298.163 15.7371 298.695 18.524 298.666 21.3334C298.666 21.7601 298.645 23.4454 298.602 23.8721L278.656 192H405.333C408.143 191.972 410.93 192.504 413.531 193.566C416.132 194.628 418.495 196.198 420.482 198.185C422.468 200.172 424.039 202.535 425.101 205.136C426.163 207.737 426.695 210.524 426.666 213.333C426.666 217.835 425.109 222.507 422.4 226.133L230.634 503.147C228.642 505.871 226.04 508.091 223.035 509.628C220.031 511.166 216.708 511.978 213.333 512ZM277.397 21.3548L107.008 276.864L224 277.333C225.497 277.331 226.977 277.644 228.345 278.252C229.713 278.86 230.937 279.75 231.937 280.863C232.938 281.976 233.692 283.288 234.152 284.713C234.611 286.137 234.764 287.643 234.602 289.131L213.269 490.731L405.333 213.333V213.248L266.666 213.333C265.159 213.335 263.668 213.017 262.292 212.4C260.916 211.783 259.686 210.881 258.684 209.754C257.682 208.627 256.931 207.301 256.479 205.862C256.027 204.424 255.886 202.905 256.064 201.408L277.397 21.3548Z" fill="#E41F26"/>
</g>
<defs>
<clipPath id="clip0_656_1552">
<rect width="512" height="512" fill="white"/>
</clipPath>
</defs>
</svg>
