<svg width="35" height="35" viewBox="0 0 35 35" fill="none" xmlns="http://www.w3.org/2000/svg">
<path fill-rule="evenodd" clip-rule="evenodd" d="M2 3.787H7.39144V4.90365H3.12915V33.8834H24.4779V26.8734H25.6071V35H2V3.787ZM24.4778 12.2512C24.8036 12.0334 25.1925 11.9136 25.607 11.9136V3.787H20.2155V4.90365H24.4778V12.2512ZM4.16134 5.92441V32.8626H23.4456V26.8734H19.2036C18.4729 26.8734 17.8213 26.5013 17.4559 25.8755C17.0905 25.2497 17.0905 24.5056 17.4559 23.8798L23.4456 13.6201V5.92441H20.2155V6.94517H7.39144V5.92441H4.16134ZM11.2225 26.2204H16.691C16.976 26.2204 17.2071 25.9919 17.2071 25.71C17.2071 25.4281 16.976 25.1996 16.691 25.1996H11.2225C10.9375 25.1996 10.7064 25.4281 10.7064 25.71C10.7064 25.9919 10.9375 26.2204 11.2225 26.2204ZM6.5699 23.8141C6.28485 23.8141 6.05377 24.0427 6.05377 24.3246V27.0954C6.05377 27.3773 6.28485 27.6058 6.5699 27.6058H9.37176C9.65681 27.6058 9.88789 27.3773 9.88789 27.0954V24.3246C9.88789 24.0427 9.65681 23.8141 9.37176 23.8141H6.5699ZM8.8557 24.8349H7.08611V26.5849H8.8557V24.8349ZM11.2225 19.9039H19.0627C19.3477 19.9039 19.5788 19.6754 19.5788 19.3935C19.5788 19.1116 19.3477 18.8831 19.0627 18.8831H11.2225C10.9375 18.8831 10.7064 19.1116 10.7064 19.3935C10.7064 19.6754 10.9375 19.9039 11.2225 19.9039ZM6.5699 17.4977C6.28485 17.4977 6.05377 17.7262 6.05377 18.0081V20.7789C6.05377 21.0608 6.28485 21.2893 6.5699 21.2893H9.37176C9.65681 21.2893 9.88789 21.0608 9.88789 20.7789V18.0081C9.88789 17.7262 9.65681 17.4977 9.37176 17.4977H6.5699ZM8.8557 18.5185H7.08611V20.2685H8.8557V18.5185ZM11.2225 13.5874H19.0627C19.3477 13.5874 19.5788 13.3589 19.5788 13.077C19.5788 12.7951 19.3477 12.5666 19.0627 12.5666H11.2225C10.9375 12.5666 10.7064 12.7951 10.7064 13.077C10.7064 13.3589 10.9375 13.5874 11.2225 13.5874ZM6.5699 11.1812C6.28485 11.1812 6.05377 11.4097 6.05377 11.6916V14.4624C6.05377 14.7443 6.28485 14.9729 6.5699 14.9729H9.37176C9.65681 14.9729 9.88789 14.7443 9.88789 14.4624V11.6916C9.88789 11.4097 9.65681 11.1812 9.37176 11.1812H6.5699ZM8.8557 12.202H7.08611V13.952H8.8557V12.202ZM8.42363 2.33421V5.92441H19.1834V2.33421H16.94C16.5484 0.986271 15.2924 0 13.8035 0C12.3145 0 11.0586 0.986271 10.667 2.33421H8.42363ZM26.4608 13.4219C26.2798 13.1119 25.969 12.9344 25.6071 12.9344C25.245 12.9344 24.9342 13.1119 24.7533 13.4219L21.5516 18.906L18.3499 24.3901C18.1689 24.7002 18.1689 25.055 18.3499 25.3651C18.5309 25.6751 18.8417 25.8525 19.2036 25.8525H25.6071H32.0105C32.3724 25.8525 32.6832 25.6751 32.8642 25.3651C33.0453 25.055 33.0453 24.7002 32.8642 24.3901L29.6625 18.906L26.4608 13.4219ZM25.4485 15.7833C25.4313 15.7833 25.4535 15.7841 25.4073 15.7858C25.1177 15.7959 24.8504 15.9094 24.6548 16.0869C24.4428 16.2792 24.31 16.5457 24.31 16.8439C24.31 16.8684 24.3108 16.8328 24.3123 16.8764L24.4647 21.3209C24.4757 21.6409 24.571 21.941 24.7697 22.1659C24.9673 22.3896 25.2429 22.5265 25.6068 22.5265C25.9742 22.5265 26.2423 22.3881 26.4329 22.1611C26.6233 21.9345 26.7055 21.6387 26.7184 21.3249L26.9014 16.8804C26.903 16.8407 26.9038 16.8529 26.9038 16.8408C26.9038 16.5438 26.7713 16.2787 26.5602 16.0872C26.3655 15.9107 26.1 15.7973 25.8131 15.7859C25.7713 15.7842 25.7752 15.7833 25.7654 15.7833H25.4485ZM25.607 22.5409C25.2773 22.5409 24.9789 22.6731 24.7628 22.8867C24.5468 23.1004 24.4131 23.3955 24.4131 23.7215C24.4131 24.0476 24.5468 24.3427 24.7628 24.5564C24.9789 24.77 25.2774 24.9022 25.607 24.9022C25.9366 24.9022 26.2351 24.77 26.4512 24.5564C26.6672 24.3426 26.8009 24.0475 26.8009 23.7215C26.8009 23.3955 26.6672 23.1004 26.4512 22.8867C26.2351 22.6731 25.9366 22.5409 25.607 22.5409ZM25.7213 23.6084C25.6921 23.5796 25.6517 23.5616 25.607 23.5616C25.5623 23.5616 25.5218 23.5796 25.4926 23.6084C25.4634 23.6373 25.4454 23.6774 25.4454 23.7215C25.4454 23.7657 25.4634 23.8058 25.4926 23.8346C25.5218 23.8635 25.5623 23.8814 25.607 23.8814C25.6517 23.8814 25.6921 23.8635 25.7213 23.8346C25.7505 23.8058 25.7687 23.7657 25.7687 23.7215C25.7686 23.6774 25.7505 23.6373 25.7213 23.6084ZM25.7654 16.8041H25.4485C25.4297 16.8041 25.4412 16.8032 25.4485 16.8026V16.8023L25.4416 16.8024C25.4061 16.8036 25.3744 16.8164 25.3524 16.8364C25.3462 16.842 25.3423 16.8425 25.3423 16.8437C25.3423 16.8626 25.3415 16.8525 25.341 16.8437H25.3406L25.4931 21.2888C25.4963 21.3845 25.5125 21.4601 25.544 21.4958C25.5492 21.5018 25.5688 21.5055 25.6069 21.5055C25.6355 21.5055 25.6399 21.5144 25.6427 21.5109C25.6717 21.4764 25.6859 21.3919 25.6903 21.2848L25.8732 16.8406H25.8727C25.8722 16.8469 25.8715 16.8527 25.8715 16.8406C25.8715 16.8378 25.8681 16.8417 25.8625 16.8367C25.8406 16.8168 25.8087 16.804 25.7727 16.8026C25.7494 16.8017 25.7937 16.8041 25.7654 16.8041ZM25.8732 16.8405V16.8408H25.8728C25.8734 16.8341 25.8737 16.8268 25.8732 16.8405ZM25.341 16.8439C25.3404 16.8362 25.3401 16.8295 25.3406 16.8439H25.341ZM25.4485 16.8023V16.8026C25.453 16.8023 25.4558 16.8021 25.4485 16.8023Z" fill="#FFBDBF"/>
</svg>
