<svg width="35" height="35" viewBox="0 0 35 35" fill="none" xmlns="http://www.w3.org/2000/svg">
<g clip-path="url(#clip0_716_1686)">
<path d="M28.7779 7C28.7779 3.04261 25.5569 -0.246094 21.5986 -0.246094C20.0562 -0.246094 18.6149 0.413779 17.4962 1.60139C16.3774 0.413779 14.9361 -0.246094 13.3938 -0.246094C9.43551 -0.246094 6.21448 3.04261 6.21448 7C6.21448 10.9804 9.13603 13.0352 12.5194 15.4154C13.9146 16.3967 15.3579 17.4121 16.8242 18.6838L17.4952 19.2666L18.1672 18.6848C19.8248 17.2508 21.4013 16.1284 22.7915 15.138C26.1357 12.7578 28.7779 10.8773 28.7779 7ZM20.573 10.0762H18.5218V12.1269H16.4706V10.0762H14.4194V8.02539H16.4706V5.97461H18.5218V8.02539H20.573V10.0762Z" fill="#FFBDBF"/>
<path d="M33.7698 9.13269C31.6774 9.13269 31.1374 18.8534 31.0963 19.0585C30.8879 20.4829 29.8843 22.5913 28.1895 23.8609L23.7472 27.0856L22.5172 25.4434L26.9596 22.2197C28.7193 20.9006 29.5213 18.6483 27.322 18.6483C25.3523 18.6483 21.6704 20.9283 20.5789 21.8328C19.2755 22.9128 18.5223 24.5176 18.5223 26.2102V34.7538H24.6759C24.6759 33.7694 25.2093 32.6962 26.0297 31.6708C26.8913 30.5428 28.122 29.3944 29.3937 28.2255C31.8141 25.9491 34.3235 23.6112 34.6517 21.2324C34.8466 19.6344 35.0084 16.8937 35.0004 14.4511C34.9915 11.7157 34.7597 9.22108 33.7698 9.13269Z" fill="#FFBDBF"/>
<path d="M14.1732 21.6425C11.2809 19.6532 9.08619 18.6483 7.67085 18.6483C5.47153 18.6483 6.27356 20.9006 8.0333 22.2197L12.4756 25.4434L11.2457 27.0856L6.80339 23.8609C5.10839 22.5913 4.1048 20.4829 3.89646 19.0585C3.85537 18.8534 3.31528 9.13269 1.22297 9.13269C0.0742847 9.23523 -0.0487888 12.578 0.0128162 15.7772C0.0539091 18.1151 0.238451 20.3915 0.340943 21.2324C0.669207 23.6112 3.17854 25.9492 5.59898 28.2255C6.87074 29.3944 8.1014 30.5428 8.96298 31.6708C9.7834 32.6962 10.3167 33.7694 10.3167 34.7538H16.4704V26.2512C16.4705 24.4396 15.6199 22.7331 14.1732 21.6425Z" fill="#FFBDBF"/>
</g>
<defs>
<clipPath id="clip0_716_1686">
<rect width="35" height="35" fill="white"/>
</clipPath>
</defs>
</svg>
