<svg width="35" height="35" viewBox="0 0 35 35" fill="none" xmlns="http://www.w3.org/2000/svg">
<path fill-rule="evenodd" clip-rule="evenodd" d="M21.5666 1.98801C22.6066 2.2394 23.5984 2.65721 24.51 3.22848L26.4229 2.36344L28.6762 4.65501L27.8288 6.60064C28.3905 7.5277 28.8014 8.53642 29.0485 9.59738L31 10.3613V13.6028L29.0485 14.3667C28.8014 15.4244 28.3873 16.4331 27.8288 17.3601L28.6762 19.3058L26.4229 21.5974L24.51 20.7355C23.6016 21.3068 22.6066 21.7247 21.5666 21.9761L20.8156 23.9608H17.6283L16.8773 21.9761C15.8341 21.7247 14.8423 21.3036 13.9308 20.7355L12.0178 21.5974L9.76454 19.3058L10.6152 17.3601C10.0535 16.4363 9.64258 15.4244 9.39222 14.3667L7.4407 13.6028V10.3613L9.39222 9.59738C9.64258 8.53642 10.0535 7.5277 10.6152 6.60064L9.76454 4.65501L12.0178 2.36344L13.9308 3.22848C14.8423 2.65721 15.8341 2.2394 16.8741 1.98801L17.6283 0H20.8156L21.5666 1.98801ZM19.2197 3.95947C14.8624 3.95947 11.3338 7.54823 11.3338 11.9797C11.3338 16.4112 14.8624 20.0046 19.2197 20.0046C23.577 20.0046 27.1101 16.4112 27.1101 11.9797C27.1101 7.54823 23.577 3.95947 19.2197 3.95947ZM20.5035 7.008C20.2058 6.89029 20.0581 6.54892 20.1739 6.24618C20.2896 5.94344 20.6252 5.79321 20.9229 5.91092C22.7421 6.63022 23.9931 8.3597 24.1157 10.3514C24.1356 10.6755 23.893 10.9553 23.5742 10.9756C23.2554 10.9959 22.9805 10.7491 22.9605 10.4249C22.8662 8.89228 21.9034 7.56154 20.5035 7.008ZM15.7111 16.7083C15.5859 17.0071 15.2457 17.1464 14.9519 17.0191C14.6581 16.8917 14.5211 16.5457 14.6464 16.2469C14.9933 15.4188 15.2425 14.5537 15.3897 13.6666C15.5405 12.7528 15.5845 11.8225 15.5284 10.8988C15.5088 10.5746 15.7517 10.2951 16.0705 10.2751C16.3892 10.2551 16.664 10.5021 16.6837 10.8263C16.7451 11.8394 16.6965 12.8596 16.531 13.8617L16.531 13.8622C16.3686 14.8406 16.0938 15.7949 15.7111 16.7083ZM16.9677 9.50968C16.8161 9.79557 16.4648 9.9024 16.1837 9.7482C15.9026 9.59392 15.7975 9.23659 15.9492 8.95077C16.5187 7.87708 17.6035 7.11549 18.88 7.03456C20.8454 6.90861 22.5574 8.44446 22.6801 10.4434C22.7324 11.2913 22.7313 12.1403 22.6754 12.9859C22.6539 13.3099 22.3778 13.5554 22.0592 13.5336C21.7405 13.5118 21.4992 13.231 21.5206 12.9069C21.5732 12.1121 21.5742 11.314 21.5249 10.5169V10.5166C21.4419 9.16361 20.283 8.12406 18.9527 8.2094H18.9522C18.0873 8.26414 17.3537 8.78222 16.9677 9.50968ZM17.3329 16.5041C17.225 16.8099 16.8933 16.969 16.5927 16.8592C16.2921 16.7495 16.1357 16.4121 16.2436 16.1064C16.4952 15.3937 16.683 14.6578 16.8072 13.9088C16.8603 13.5885 17.1591 13.3723 17.4741 13.4263C17.7891 13.4803 18.0016 13.7842 17.9485 14.1045C17.8129 14.9224 17.6076 15.7258 17.3329 16.5041ZM21.3509 14.4517C21.3993 14.1306 21.6948 13.9098 22.0105 13.9591C22.3263 14.0082 22.5433 14.3089 22.4949 14.6299C22.4109 15.1877 22.3013 15.7407 22.1671 16.289C22.0899 16.6041 21.7757 16.7964 21.4657 16.7179C21.1558 16.6394 20.9668 16.3198 21.0439 16.0046C21.1696 15.4914 21.2722 14.9737 21.3509 14.4517ZM18.5262 10.7078C18.5061 10.3835 18.7485 10.1038 19.0673 10.0833C19.386 10.0629 19.6611 10.3095 19.6812 10.6337C19.7809 12.2409 19.6621 14.034 19.1662 15.8856C19.0823 16.199 18.7639 16.3842 18.4558 16.2988C18.1476 16.2134 17.9656 15.8897 18.0495 15.5762C18.5092 13.8599 18.6185 12.1976 18.5262 10.7078ZM18.1274 12.4498C18.1107 12.7742 17.8382 13.0238 17.5193 13.0068C17.2004 12.9899 16.9549 12.7128 16.9716 12.3883C16.9987 11.8618 16.9954 11.3341 16.963 10.8075L16.9629 10.807C16.8903 9.61172 17.7933 8.56894 18.9702 8.49346H18.9708C20.1461 8.41952 21.1714 9.33804 21.2456 10.5349V10.5352C21.3297 11.9034 21.2619 13.2822 21.0377 14.6337C20.9581 15.1191 20.8575 15.5997 20.7371 16.0745C20.6572 16.389 20.3413 16.5785 20.0321 16.4972C19.7228 16.416 19.5366 16.0947 19.6164 15.7802C19.7286 15.3385 19.8222 14.8912 19.8962 14.4395L19.8964 14.4383C20.1059 13.1755 20.169 11.8872 20.0905 10.6089C20.0562 10.0576 19.584 9.63446 19.0427 9.6683C18.5006 9.70324 18.0846 10.1837 18.1181 10.7343C18.1533 11.3057 18.1568 11.8784 18.1274 12.4498ZM22.9836 12.4611C22.9963 12.1365 23.2657 11.8836 23.5849 11.8965C23.904 11.9095 24.1528 12.1834 24.14 12.508C24.083 13.9605 23.8783 15.4021 23.5213 16.8095C23.4415 17.1241 23.1256 17.3136 22.8163 17.2324C22.5071 17.1513 22.3208 16.8301 22.4005 16.5155C22.7371 15.1889 22.9298 13.83 22.9836 12.4611ZM15.5999 9.01698C15.4657 9.3117 15.1214 9.44016 14.8316 9.30361C14.5418 9.16706 14.4155 8.81694 14.5497 8.52215C15.3222 6.82628 16.9487 5.69139 18.7898 5.57449C19.1086 5.55425 19.3835 5.80108 19.4034 6.12523C19.4233 6.44946 19.1807 6.7291 18.8619 6.74933C17.4455 6.83923 16.1942 7.71229 15.5999 9.01698ZM14.6257 15.5168C14.5182 15.8226 14.1867 15.9821 13.886 15.8727C13.5852 15.7633 13.4284 15.4261 13.536 15.1203C14.0008 13.7987 14.1795 12.3976 14.0929 10.9912C14.0729 10.667 14.3156 10.3874 14.6344 10.3671C14.9531 10.3468 15.2281 10.5935 15.2481 10.9177C15.3445 12.4843 15.1435 14.0446 14.6257 15.5168ZM9.35272 32.0001L7.23787 28.1995L10.5074 26.2743C11.2582 25.8327 12.0114 25.4768 12.8359 25.7491L12.8361 25.7492C13.9304 26.1101 15.7141 26.8783 17.537 27.2197C17.9177 27.3604 18.1657 27.7459 18.06 28.1458L18.0599 28.1461C17.9549 28.5438 17.6177 28.7299 17.1619 28.6799C16.1645 28.47 15.2382 28.1619 14.2105 27.881C13.9235 27.8025 13.6277 27.9759 13.5506 28.2679C13.4734 28.5599 13.6439 28.8606 13.9309 28.939C14.9879 29.228 16.9827 29.7608 16.99 29.762L17.5538 29.8553C17.5545 29.8554 17.555 29.8555 17.5557 29.8556C18.4085 29.9937 19.1909 29.8707 19.9376 29.4282L24.4809 26.737C26.3382 25.6366 27.1323 26.1872 27.1113 26.9889C27.1043 27.2572 27.0098 27.5294 26.8028 27.6591L18.5582 32.8218L18.5577 32.8221C17.9306 33.2157 17.2433 33.3042 16.5318 33.1112L10.5518 31.4812C10.4138 31.4436 10.2668 31.4633 10.143 31.5359L9.35272 32.0001ZM5.51921 27.3353L9.26519 34.0672C9.30035 34.131 9.27908 34.2128 9.21658 34.2487L9.21593 34.2491L7.94301 34.9828C7.88023 35.0185 7.79993 34.9969 7.76463 34.9334L7.76441 34.933L4.0172 28.1989L4.01706 28.1986C3.98176 28.1352 4.00295 28.0541 4.06494 28.0185L4.06538 28.0182L5.34068 27.284C5.40311 27.2482 5.48275 27.2714 5.51878 27.3346L5.51921 27.3353ZM5.1168 27.9997C4.82759 28.0417 4.62787 28.3149 4.66925 28.609C4.71222 28.9031 4.9808 29.108 5.27001 29.0642C5.55921 29.0222 5.75886 28.7473 5.71756 28.4532C5.67452 28.1591 5.406 27.9559 5.1168 27.9997Z" fill="#FFBDBF"/>
</svg>
