<svg width="35" height="35" viewBox="0 0 35 35" fill="none" xmlns="http://www.w3.org/2000/svg">
<g clip-path="url(#clip0_675_2997)">
<path fill-rule="evenodd" clip-rule="evenodd" d="M26.969 11.165C26.969 12.0498 25.4603 12.5178 23.8636 12.5695C23.8127 12.5712 23.7759 12.5221 23.7917 12.4737C23.8612 12.2609 23.8996 12.0309 23.8996 11.7828C23.8996 10.3627 23.4365 9.0506 22.6536 7.98894C22.6229 7.94723 22.6436 7.88816 22.6937 7.87489C22.9721 7.80125 23.2643 7.76187 23.5658 7.76187C25.4454 7.76187 26.969 9.28553 26.969 11.165ZM22.8788 11.7828C22.8788 8.81231 20.4707 6.40424 17.5003 6.40424C14.5297 6.40424 12.1213 8.81238 12.1213 11.7828C12.1213 14.7533 22.8788 14.7533 22.8788 11.7828ZM15.0142 2.48557C15.0142 3.85859 16.1272 4.97158 17.5003 4.97158C18.8733 4.97158 19.9862 3.85859 19.9862 2.48557C19.9862 1.11292 18.8733 0 17.5003 0C16.1272 0 15.0142 1.113 15.0142 2.48557ZM33.8505 20.3994C30.4042 20.3994 28.6751 24.5744 31.1118 27.0111C31.5607 27.46 31.5607 28.1881 31.1118 28.637L28.6369 31.1118C28.1881 31.5607 27.46 31.5607 27.0111 31.1118C24.5744 28.6751 20.3993 30.4042 20.3993 33.8505C20.3993 34.4856 19.8846 35 19.2498 35H15.75C15.1152 35 14.6004 34.4856 14.6004 33.8505C14.6004 30.4 10.4285 28.6721 7.98873 31.1118C7.53986 31.5607 6.81186 31.5607 6.36299 31.1118L3.88813 28.637C3.43925 28.1881 3.43925 27.4601 3.88813 27.0111C6.32485 24.5744 4.59571 20.3994 1.14953 20.3994C0.514426 20.3994 0 19.8846 0 19.2498V17.6459C7.29165e-05 17.5656 0.0656978 17.4999 0.146125 17.4999H8.80343C8.88305 17.4999 8.94795 17.5639 8.94926 17.6436C9.02597 22.3004 12.8248 26.0518 17.5 26.0518C22.1752 26.0518 25.9741 22.3004 26.0508 17.6436C26.0521 17.5641 26.1172 17.4999 26.1966 17.4999H34.8539C34.9344 17.4999 35 17.5656 35 17.646V19.2499C35 19.8846 34.4856 20.3994 33.8505 20.3994ZM32.9463 14.0169L31.7793 14.0363L31.7849 16.4791H30.768L30.7612 13.5442C30.7568 13.2634 30.9808 13.0322 31.2616 13.0278L32.9292 13C33.1093 12.6433 33.4792 12.3986 33.9061 12.3986C34.5101 12.3986 34.9999 12.8883 34.9999 13.4923C34.9999 14.0963 34.5101 14.586 33.9061 14.586C33.4922 14.586 33.132 14.3561 32.9463 14.0169ZM1.09382 14.586C1.50777 14.586 1.86805 14.3561 2.05377 14.0169L3.2208 14.0363L3.21511 16.4791H4.232L4.23878 13.5442C4.24316 13.2634 4.01916 13.0322 3.73836 13.0278L2.07076 13C1.89058 12.6433 1.52082 12.3986 1.09382 12.3986C0.48978 12.3986 7.2946e-05 12.8883 7.2946e-05 13.4923C7.2946e-05 14.0964 0.48978 14.586 1.09382 14.586ZM31.7785 11.2544C32.3826 11.2544 32.8723 10.7647 32.8723 10.1607C32.8723 9.55664 32.3826 9.06693 31.7785 9.06693C31.3588 9.06693 30.9944 9.3034 30.8111 9.65026H28.7201C28.4194 9.65026 28.211 9.90751 28.2118 10.2073L28.2301 16.4791H29.2469L29.23 10.6711H30.811C30.9944 11.018 31.3588 11.2544 31.7785 11.2544ZM3.22152 11.2544C2.61748 11.2544 2.12778 10.7647 2.12778 10.1607C2.12778 9.55664 2.61748 9.06693 3.22152 9.06693C3.64123 9.06693 4.00567 9.3034 4.18905 9.65026H6.27993C6.58064 9.65026 6.78911 9.90751 6.78824 10.2073L6.77001 16.4791H5.75311L5.76996 10.6711H4.18898C4.0056 11.018 3.64116 11.2544 3.22152 11.2544ZM23.6433 17.6495C23.6453 17.5669 23.5798 17.4999 23.4973 17.4999H11.5027C11.4202 17.4999 11.3547 17.5669 11.3567 17.6495C11.4361 20.9742 14.1562 23.645 17.5 23.645C20.8439 23.645 23.564 20.9742 23.6433 17.6495ZM11.1365 12.5695C9.53974 12.5178 8.0311 12.0498 8.0311 11.165C8.0311 9.28553 9.55498 7.76187 11.4344 7.76187C11.7358 7.76187 12.0281 7.80125 12.3064 7.87489C12.3565 7.88816 12.3773 7.94723 12.3465 7.98894C11.5635 9.0506 11.1004 10.3626 11.1004 11.7828C11.1004 12.0309 11.1388 12.2609 11.2083 12.4737C11.2241 12.5221 11.1874 12.5712 11.1365 12.5695ZM9.86145 5.28257C9.86145 4.41406 10.5657 3.70991 11.4343 3.70991C12.3031 3.70991 13.0072 4.41406 13.0072 5.28257C13.0072 6.1513 12.3031 6.85545 11.4343 6.85545C10.5657 6.85545 9.86145 6.1513 9.86145 5.28257ZM21.993 5.28257C21.993 4.41406 22.6972 3.70991 23.5659 3.70991C24.4346 3.70991 25.1388 4.41406 25.1388 5.28257C25.1388 6.1513 24.4346 6.85545 23.5659 6.85545C22.6972 6.85545 21.993 6.1513 21.993 5.28257Z" fill="#FFBDBF"/>
</g>
<defs>
<clipPath id="clip0_675_2997">
<rect width="35" height="35" fill="white"/>
</clipPath>
</defs>
</svg>
