<svg width="35" height="35" viewBox="0 0 35 35" fill="none" xmlns="http://www.w3.org/2000/svg">
<g clip-path="url(#clip0_718_1742)">
<path d="M17.5003 16.3789C16.3637 16.3789 15.2736 15.918 14.4699 15.0975C13.6662 14.277 13.2146 13.1642 13.2146 12.0039C13.2146 10.8436 13.6662 9.73079 14.4699 8.91031C15.2736 8.08984 16.3637 7.62891 17.5003 7.62891C18.637 7.62891 19.7271 8.08984 20.5308 8.91031C21.3345 9.73079 21.7861 10.8436 21.7861 12.0039C21.7861 12.5784 21.6752 13.1473 21.4598 13.6781C21.2444 14.2089 20.9288 14.6912 20.5308 15.0975C20.1328 15.5038 19.6604 15.826 19.1404 16.0459C18.6204 16.2657 18.0631 16.3789 17.5003 16.3789ZM17.5003 -0.246094C14.3177 -0.246094 11.2655 1.04453 9.01505 3.34185C6.76462 5.63917 5.50034 8.755 5.50034 12.0039C5.50034 21.1914 17.5003 34.7539 17.5003 34.7539C17.5003 34.7539 29.5003 21.1914 29.5003 12.0039C29.5003 8.755 28.2361 5.63917 25.9856 3.34185C23.7352 1.04453 20.6829 -0.246094 17.5003 -0.246094Z" fill="white"/>
</g>
<defs>
<clipPath id="clip0_718_1742">
<rect width="35" height="35" fill="white"/>
</clipPath>
</defs>
</svg>
