<svg width="588" height="260" viewBox="0 0 588 260" fill="none" xmlns="http://www.w3.org/2000/svg">
<g clip-path="url(#clip0_647_1198)">
<path opacity="0.959" fill-rule="evenodd" clip-rule="evenodd" d="M189.5 -0.5C190.5 -0.5 191.5 -0.5 192.5 -0.5C194.174 12.9091 195.174 26.2424 195.5 39.5C192.961 38.8847 190.461 38.2181 188 37.5C187.328 42.0349 186.494 46.5349 185.5 51C186.205 52.4219 186.539 53.7553 186.5 55C185.376 55.8388 184.709 57.0055 184.5 58.5C183.011 68.1282 181.511 77.4615 180 86.5C179.28 88.1124 179.446 89.6124 180.5 91C178.763 94.0256 177.763 97.359 177.5 101C177.585 102.107 177.919 103.107 178.5 104C176.302 105.67 175.968 107.67 177.5 110C176.342 111.009 175.675 112.342 175.5 114C173.261 127.938 170.927 142.105 168.5 156.5C169.705 158.121 169.539 159.454 168 160.5C167.28 162.112 167.446 163.612 168.5 165C166.763 168.026 165.763 171.359 165.5 175C165.585 176.107 165.919 177.107 166.5 178C164.302 179.67 163.968 181.67 165.5 184C164.376 184.839 163.709 186.006 163.5 187.5C161.281 201.979 158.947 216.146 156.5 230C156.585 231.107 156.919 232.107 157.5 233C155.302 234.67 154.968 236.67 156.5 239C154.845 241.507 154.011 244.341 154 247.5C152.333 246.167 150.667 246.167 149 247.5C149.054 243.832 149.554 240.166 150.5 236.5C150.392 235.558 150.059 234.725 149.5 234C150.76 230.964 151.76 227.964 152.5 225C152.355 224.228 152.022 223.561 151.5 223C154.064 212.913 156.064 202.913 157.5 193C157.415 191.893 157.081 190.893 156.5 190C158.658 188.688 158.991 187.022 157.5 185C158.661 181.63 159.661 178.297 160.5 175C160.355 174.228 160.022 173.561 159.5 173C161.696 168.828 162.363 164.494 161.5 160C162 159.5 162.5 159 163 158.5C164.676 147.387 166.51 136.554 168.5 126C169.215 122.88 169.215 119.714 168.5 116.5C168.5 116.167 168.5 115.833 168.5 115.5C167.833 115.5 167.5 115.833 167.5 116.5C166.833 116.5 166.5 116.833 166.5 117.5C165.833 117.5 165.5 117.833 165.5 118.5C164.833 118.5 164.5 118.833 164.5 119.5C163.833 119.5 163.5 119.833 163.5 120.5C162.833 120.5 162.5 120.833 162.5 121.5C161.833 121.5 161.5 121.833 161.5 122.5C160.833 122.5 160.5 122.833 160.5 123.5C159.833 123.5 159.5 123.833 159.5 124.5C158.833 124.5 158.5 124.833 158.5 125.5C157.833 125.5 157.5 125.833 157.5 126.5C156.833 126.5 156.5 126.833 156.5 127.5C155.167 127.833 155.167 128.167 156.5 128.5C154.537 129.168 152.537 129.502 150.5 129.5C149.803 127.615 148.803 127.282 147.5 128.5C146.808 127.975 146.308 127.308 146 126.5C144.403 126.64 142.903 126.64 141.5 126.5C140.803 124.615 139.803 124.282 138.5 125.5C138.167 124.833 137.833 124.167 137.5 123.5C136.833 123.833 136.167 124.167 135.5 124.5C135.167 123.833 134.833 123.167 134.5 122.5C133.583 123.127 132.583 123.461 131.5 123.5C132.658 124.573 132.658 125.739 131.5 127C131.905 127.945 132.572 128.612 133.5 129C132.14 130.938 132.473 132.604 134.5 134C133.191 135.751 133.525 137.251 135.5 138.5C134.719 141.721 135.386 144.721 137.5 147.5C137.167 148.167 136.833 148.833 136.5 149.5C137.231 153.109 138.564 156.442 140.5 159.5C139.411 162.818 140.078 165.818 142.5 168.5C141.617 171.744 142.284 174.744 144.5 177.5C143.873 178.417 143.539 179.417 143.5 180.5C136.5 180.5 129.5 180.5 122.5 180.5C122.807 199.407 123.474 218.24 124.5 237C123.941 237.725 123.608 238.558 123.5 239.5C125.359 241.88 126.526 244.213 127 246.5C128.016 245.366 128.683 245.699 129 247.5C129.333 247.167 129.667 246.833 130 246.5C130.674 247.578 131.674 248.245 133 248.5C134.669 247.834 136.169 247.834 137.5 248.5C137.596 250.215 137.596 251.881 137.5 253.5C137.167 252.167 136.833 252.167 136.5 253.5C133.183 253.219 130.017 253.219 127 253.5C126.722 252.584 126.222 251.918 125.5 251.5C125.167 250.167 124.833 250.167 124.5 251.5C121.843 250.74 120.843 249.24 121.5 247C119.136 245.988 117.802 244.655 117.5 243C117.687 222.249 117.687 201.416 117.5 180.5C107.833 180.5 98.1667 180.5 88.5 180.5C88.4627 201.619 88.4627 222.619 88.5 243.5C87.7255 245.396 86.7255 247.063 85.5 248.5C85.1667 247.167 84.8333 247.167 84.5 248.5C83.8333 248.5 83.5 248.833 83.5 249.5C82.1667 249.833 82.1667 250.167 83.5 250.5C82.1316 252.779 80.2983 253.446 78 252.5C77.6667 253.167 77.3333 253.833 77 254.5C74.6667 253.167 72.3333 253.167 70 254.5C69.7216 253.584 69.2216 252.918 68.5 252.5C68.9662 250.799 68.9662 249.299 68.5 248C69.9504 247.883 71.4504 248.05 73 248.5C74.3651 248.156 75.5318 247.489 76.5 246.5C77.086 246.709 77.586 247.043 78 247.5C80.2571 245.652 81.7571 243.818 82.5 242C82.0426 241.586 81.7093 241.086 81.5 240.5C82.2618 236.889 82.7618 233.222 83 229.5C83.4999 213.17 83.6666 196.837 83.5 180.5C76.5 180.5 69.5 180.5 62.5 180.5C63.0525 178.061 63.0525 175.727 62.5 173.5C64.4386 171.878 64.772 170.044 63.5 168C65.6348 164.898 66.9681 161.398 67.5 157.5C68.2387 155.4 68.2387 153.067 67.5 150.5C68.1667 149.833 68.8333 149.167 69.5 148.5C70.2387 146.4 70.2387 144.067 69.5 141.5C71.3348 140.572 71.6682 139.406 70.5 138C72.5268 136.604 72.8602 134.938 71.5 133C73.3937 131.921 73.727 130.587 72.5 129C73.3567 128.311 74.0233 127.478 74.5 126.5C73.2889 125.28 73.2889 124.113 74.5 123C73.9747 122.308 73.3081 121.808 72.5 121.5C72.1667 122.167 71.8333 122.833 71.5 123.5C70.8333 123.167 70.1667 122.833 69.5 122.5C69.1667 123.167 68.8333 123.833 68.5 124.5C67.1973 123.282 66.1973 123.615 65.5 125.5C64.1973 124.282 63.1973 124.615 62.5 126.5C61.1973 125.282 60.1973 125.615 59.5 127.5C58.1973 126.282 57.1973 126.615 56.5 128.5C55.1973 127.282 54.1973 127.615 53.5 129.5C52.2736 128.637 50.9403 128.637 49.5 129.5C47.1595 126.114 44.4929 123.78 41.5 122.5C40.6236 122.369 39.9569 122.702 39.5 123.5C39.9698 124.463 40.6365 124.463 41.5 123.5C41.5858 124.496 41.2524 125.329 40.5 126C41.6141 127.449 42.6141 128.783 43.5 130C42.5494 130.718 42.3828 131.551 43 132.5C44.6665 131.66 44.8331 132.16 43.5 134C44.6141 135.449 45.6141 136.783 46.5 138C46.0426 138.414 45.7093 138.914 45.5 139.5C46.1667 139.833 46.8333 140.167 47.5 140.5C47.1373 141.183 46.8039 141.85 46.5 142.5C30.8333 142.5 15.1667 142.5 -0.5 142.5C-0.5 141.5 -0.5 140.5 -0.5 139.5C0.833333 139.167 0.833333 138.833 -0.5 138.5C-0.5 137.833 -0.5 137.167 -0.5 136.5C1.5065 137.679 1.83984 137.179 0.5 135C1.16667 134.667 1.83333 134.333 2.5 134C2.36023 132.403 2.36023 130.903 2.5 129.5C3.16667 129.167 3.83333 128.833 4.5 128.5C3.09773 127.158 3.43107 126.324 5.5 126C5.04265 125.586 4.70931 125.086 4.5 124.5C5.56218 123.23 6.56218 122.063 7.5 121C7.36023 119.403 7.36023 117.903 7.5 116.5C8.16667 116.167 8.83333 115.833 9.5 115.5C8.09773 114.158 8.43107 113.324 10.5 113C10.0426 112.586 9.70931 112.086 9.5 111.5C10.5 110.167 11.5 108.833 12.5 107.5C11.0977 106.158 11.4311 105.324 13.5 105C13.0426 104.586 12.7093 104.086 12.5 103.5C13.1667 103.167 13.8333 102.833 14.5 102.5C13.0977 101.158 13.4311 100.324 15.5 100C15.3602 98.4029 15.3602 96.9029 15.5 95.5C16.1667 95.1667 16.8333 94.8333 17.5 94.5C16.0977 93.1575 16.4311 92.3242 18.5 92C17.1854 90.6054 17.5188 89.6054 19.5 89C19.8346 87.836 19.8346 86.5026 19.5 85C21.5689 84.6758 21.9023 83.8425 20.5 82.5C20.8457 81.3044 21.3457 81.3044 22 82.5C22.4643 81.9056 22.631 81.2389 22.5 80.5C22.8333 80.5 23.1667 80.5 23.5 80.5C23.6995 83.0752 25.0329 85.4086 27.5 87.5C27.6398 88.9029 27.6398 90.4029 27.5 92C29.032 92.6995 30.032 93.8662 30.5 95.5C30.6398 96.9029 30.6398 98.4029 30.5 100C32.5689 100.324 32.9023 101.158 31.5 102.5C32.1667 102.833 32.8333 103.167 33.5 103.5C32.0977 104.842 32.4311 105.676 34.5 106C34.1667 106.333 33.8333 106.667 33.5 107C39.3715 111.088 45.0382 115.922 50.5 121.5C49.1667 121.833 49.1667 122.167 50.5 122.5C51.882 122.402 53.382 122.402 55 122.5C55.8525 120.875 56.8525 120.542 58 121.5C59.5944 120.427 61.0944 119.427 62.5 118.5C63.8027 119.718 64.8027 119.385 65.5 117.5C66.8027 118.718 67.8027 118.385 68.5 116.5C69.8425 117.902 70.6758 117.569 71 115.5C72.3946 116.815 73.3946 116.481 74 114.5C74.9772 115.774 75.8106 115.774 76.5 114.5C78.7539 106.944 80.4205 99.4442 81.5 92C80 90.5 78.5 89 77 87.5C76.6667 87.8333 76.3333 88.1667 76 88.5C73.5519 85.0447 71.7186 81.7114 70.5 78.5C71.8587 76.694 71.5254 75.194 69.5 74C70.8333 70 70.8333 66 69.5 62C71.6138 60.5024 72.1138 58.6691 71 56.5C72.6665 57.3402 72.8331 56.8402 71.5 55C73.3008 54.6827 73.6341 54.016 72.5 53C75.2676 52.2924 76.1009 50.7924 75 48.5C76.3639 49.2583 77.5305 48.7583 78.5 47C78.1667 46.6667 77.8333 46.3333 77.5 46C78.6667 44.8333 79.8333 43.6667 81 42.5C81.9138 43.6537 82.7471 43.487 83.5 42C83.1667 41.6667 82.8333 41.3333 82.5 41C84.3703 39.6338 86.3703 38.4672 88.5 37.5C89.8425 38.9023 90.6758 38.5689 91 36.5C92.4056 37.6682 93.5723 37.3348 94.5 35.5C100.205 35.0268 105.871 35.6935 111.5 37.5C112.842 36.0977 113.676 36.4311 114 38.5C115.84 37.1669 116.34 37.3335 115.5 39C116.416 39.3742 117.25 39.8742 118 40.5C119.84 39.1669 120.34 39.3335 119.5 41C120.253 42.487 121.086 42.6537 122 41.5C122.953 43.4552 124.287 45.1218 126 46.5C126.333 46.1667 126.667 45.8333 127 45.5C130.233 48.8725 131.733 52.2058 131.5 55.5C131.846 56.6956 132.346 56.6956 133 55.5C133.617 56.4491 133.451 57.2825 132.5 58C133.167 58.6667 133.833 59.3333 134.5 60C134.429 65.6516 134.429 71.3183 134.5 77C132.431 77.3242 132.098 78.1575 133.5 79.5C133.154 80.6956 132.654 80.6956 132 79.5C131.536 80.0944 131.369 80.7611 131.5 81.5C130.167 81.8333 130.167 82.1667 131.5 82.5C131.34 84.153 130.674 85.4863 129.5 86.5C129.167 85.1667 128.833 85.1667 128.5 86.5C127.833 86.5 127.5 86.8333 127.5 87.5C126.167 87.8333 126.167 88.1667 127.5 88.5C126.853 91.1647 125.52 92.498 123.5 92.5C124.785 94.7527 125.785 96.9194 126.5 99C125.566 102.272 126.233 105.272 128.5 108C127.715 110.443 127.881 112.943 129 115.5C130.016 114.366 130.683 114.699 131 116.5C132.395 115.185 133.395 115.519 134 117.5C135.395 116.185 136.395 116.519 137 118.5C138.395 117.185 139.395 117.519 140 119.5C141.395 118.185 142.395 118.519 143 120.5C144.395 119.185 145.395 119.519 146 121.5C147.395 120.185 148.395 120.519 149 122.5C149.414 122.043 149.914 121.709 150.5 121.5C151.258 122.811 152.258 123.311 153.5 123C159.5 117 165.5 111 171.5 105C171.167 104.667 170.833 104.333 170.5 104C172.527 102.604 172.86 100.938 171.5 99C172.126 98.2496 172.626 97.4162 173 96.5C176.586 75.8164 179.753 55.8164 182.5 36.5C179.763 36.5987 177.096 36.2653 174.5 35.5C173.047 34.1751 173.381 33.3418 175.5 33C175.746 31.9399 175.746 30.7732 175.5 29.5C176.333 27.8333 177.167 26.1667 178 24.5C179.666 25.3402 179.833 24.8402 178.5 23C180.301 22.6827 180.634 22.016 179.5 21C180.167 20.6667 180.833 20.3333 181.5 20C181.5 19 181.5 18 181.5 17C183.569 16.6758 183.902 15.8425 182.5 14.5C183.333 12.8333 184.167 11.1667 185 9.5C186.666 10.3402 186.833 9.84025 185.5 8C186.833 6.33333 188.167 4.66667 189.5 3C188.316 1.85453 188.316 0.687867 189.5 -0.5ZM115.5 45.5C115.842 46.3382 116.508 46.6716 117.5 46.5C119.167 48.8333 121.167 50.8333 123.5 52.5C124.167 53.1667 124.833 53.8333 125.5 54.5C124.167 54.8333 124.167 55.1667 125.5 55.5C125.577 56.7498 126.244 57.5831 127.5 58C126.167 59.8402 126.334 60.3402 128 59.5C128.684 60.7839 128.517 61.9505 127.5 63C130.167 66.3333 130.167 69.6667 127.5 73C128.668 74.4056 128.335 75.5723 126.5 76.5C126.709 77.086 127.043 77.586 127.5 78C126.662 79.1554 125.662 80.3221 124.5 81.5C123.599 82.2905 122.932 83.2905 122.5 84.5C120.071 85.8551 118.738 87.5217 118.5 89.5C117.49 92.2436 117.824 94.5769 119.5 96.5C119.291 97.086 118.957 97.586 118.5 98C120.767 100.728 121.434 103.728 120.5 107C121.595 109.195 122.595 111.362 123.5 113.5C124.131 115.478 124.131 117.645 123.5 120C125.525 121.194 125.859 122.694 124.5 124.5C125.807 130.046 127.474 135.212 129.5 140C129.355 140.772 129.022 141.439 128.5 142C130.689 142.677 131.022 143.844 129.5 145.5C132.438 151.24 133.771 157.24 133.5 163.5C135.848 166.05 136.514 168.884 135.5 172C136.357 172.689 137.023 173.522 137.5 174.5C114.5 175.833 91.5 175.833 68.5 174.5C69.0058 170.596 70.3391 166.763 72.5 163C71.4276 159.956 72.0943 157.289 74.5 155C73.689 152.28 73.689 149.78 74.5 147.5C75.0253 146.808 75.6919 146.308 76.5 146C75.2656 142.602 75.9323 139.602 78.5 137C78.1012 134.398 78.1012 131.898 78.5 129.5C79.0253 128.808 79.6919 128.308 80.5 128C80.1012 125.398 80.1012 122.898 80.5 120.5C81.0253 119.808 81.6919 119.308 82.5 119C81.9781 118.439 81.6448 117.772 81.5 117C82.23 114.184 82.8966 111.35 83.5 108.5C83.8178 107.353 84.4844 106.519 85.5 106C84.689 103.28 84.689 100.78 85.5 98.5C86.0253 97.8076 86.6919 97.3076 87.5 97C86.0745 95.2859 86.4078 93.9525 88.5 93C87.7476 92.3292 87.4142 91.4959 87.5 90.5C88.8333 90.1667 88.8333 89.8333 87.5 89.5C85.1667 87.8333 83.1667 85.8333 81.5 83.5C81.5 82.8333 81.1667 82.5 80.5 82.5C79.2555 80.5117 77.9222 78.5117 76.5 76.5C77.8549 75.3247 77.6883 74.3247 76 73.5C74.9878 68.925 75.4878 64.5917 77.5 60.5C76.0977 59.1575 76.4311 58.3242 78.5 58C77.2264 57.0228 77.2264 56.1894 78.5 55.5C79.1667 54.8333 79.8333 54.1667 80.5 53.5C81.4013 52.7095 82.0679 51.7095 82.5 50.5C83.5 50.1667 84.1667 49.5 84.5 48.5C85.7095 48.0679 86.7095 47.4013 87.5 46.5C88.1667 46.5 88.5 46.1667 88.5 45.5C89.4916 45.6716 90.1583 45.3382 90.5 44.5C91.2389 44.631 91.9056 44.4643 92.5 44C91.3044 43.3457 91.3044 42.8457 92.5 42.5C93.1667 42.8333 93.8333 43.1667 94.5 43.5C95.6956 43.1543 95.6956 42.6543 94.5 42C97.1912 42.6099 99.8578 42.1099 102.5 40.5C103.478 40.9767 104.311 41.6433 105 42.5C107.475 41.9732 109.809 41.9732 112 42.5C113.155 43.3381 114.322 44.3381 115.5 45.5ZM168.5 115.5C168.783 114.711 169.283 114.044 170 113.5C170.528 114.816 170.028 115.483 168.5 115.5ZM40.5 120.5C39.6365 121.463 38.9698 121.463 38.5 120.5C39.2565 119.227 39.9232 119.227 40.5 120.5ZM131.5 123.5C130.227 122.923 130.227 122.257 131.5 121.5C132.463 121.97 132.463 122.637 131.5 123.5ZM41.5 122.5C41.5 122.833 41.5 123.167 41.5 123.5C40.6365 124.463 39.9698 124.463 39.5 123.5C39.9569 122.702 40.6236 122.369 41.5 122.5Z" fill="white"/>
<path opacity="0.016" fill-rule="evenodd" clip-rule="evenodd" d="M174.5 35.5C173.833 36.1667 173.833 36.1667 174.5 35.5Z" fill="white"/>
<path opacity="0.935" fill-rule="evenodd" clip-rule="evenodd" d="M587.5 60.5C587.5 61.1667 587.5 61.8333 587.5 62.5C586.167 62.8333 586.167 63.1667 587.5 63.5C587.5 66.8333 587.5 70.1667 587.5 73.5C586.167 73.8333 586.167 74.1667 587.5 74.5C587.5 75.1667 587.5 75.8333 587.5 76.5C586.272 77.3065 585.272 78.3065 584.5 79.5C584.167 78.1667 583.833 78.1667 583.5 79.5C582.167 79.8333 582.167 80.1667 583.5 80.5C582.235 81.4793 580.901 82.4793 579.5 83.5C578.313 82.3473 577.313 82.3473 576.5 83.5C573.881 83.2317 571.381 83.565 569 84.5C568.676 82.4311 567.842 82.0977 566.5 83.5C565.5 83 564.5 82.5 563.5 82C563.833 81.6667 564.167 81.3333 564.5 81C563.333 79.8333 562.167 78.6667 561 77.5C560.667 77.8333 560.333 78.1667 560 78.5C558.887 77.2396 558.72 76.073 559.5 75C558.833 74.6667 558.167 74.3333 557.5 74C557.583 70.5 557.583 67 557.5 63.5C558.891 63.8914 559.891 63.0581 560.5 61C559.167 59.1598 559.334 58.6598 561 59.5C562.758 58.5305 563.258 57.3639 562.5 56C563.76 54.887 564.927 54.7203 566 55.5C566.333 54.8333 566.667 54.1667 567 53.5C570.864 53.5387 574.698 53.5387 578.5 53.5C581.709 55.0094 584.709 57.3428 587.5 60.5ZM577.5 59.5C579.167 60.5 580.5 61.8333 581.5 63.5C581.918 64.2216 582.584 64.7216 583.5 65C583.5 67.3333 583.5 69.6667 583.5 72C582.662 73.1554 581.662 74.3221 580.5 75.5C579.465 74.2092 578.465 72.8758 577.5 71.5C578.833 71.1667 578.833 70.8333 577.5 70.5C577.5 70.1667 577.5 69.8333 577.5 69.5C578.833 69.1667 578.833 68.8333 577.5 68.5C577.918 67.7784 578.584 67.2784 579.5 67C580.048 65.4039 579.382 64.2373 577.5 63.5C578.547 62.9222 578.38 62.2555 577 61.5C576.601 61.7284 576.435 62.0618 576.5 62.5C573.5 61.1667 570.5 61.1667 567.5 62.5C567.5 61.8333 567.167 61.5 566.5 61.5C566.5 61.1667 566.5 60.8333 566.5 60.5C567.492 60.6716 568.158 60.3382 568.5 59.5C569.893 58.7402 571.393 58.0735 573 57.5C574.607 58.0735 576.107 58.7402 577.5 59.5ZM566.5 61.5C567.167 61.5 567.5 61.8333 567.5 62.5C566.167 66.8333 566.167 71.1667 567.5 75.5C566.833 75.5 566.167 75.5 565.5 75.5C565.5 74.8333 565.167 74.5 564.5 74.5C564.672 73.5084 564.338 72.8417 563.5 72.5C563.297 70.9557 562.63 69.6223 561.5 68.5C562.025 67.8076 562.692 67.3076 563.5 67C562.402 66.2303 562.402 65.397 563.5 64.5C564.338 64.1583 564.672 63.4916 564.5 62.5C565.167 62.1667 565.833 61.8333 566.5 61.5ZM570.5 64.5C571.873 64.3433 573.207 64.51 574.5 65C573.167 65.6667 573.167 66.3333 574.5 67C573.207 67.49 571.873 67.6567 570.5 67.5C570.5 66.5 570.5 65.5 570.5 64.5ZM573.5 73.5C573.328 74.4916 573.662 75.1583 574.5 75.5C574.833 76.8333 575.167 76.8333 575.5 75.5C576.833 75.5 577.5 76.1667 577.5 77.5C576.844 78.2778 576.011 78.9444 575 79.5C573.667 78.1667 572.333 78.1667 571 79.5C570.055 79.0946 569.388 78.428 569 77.5C568.667 77.8333 568.333 78.1667 568 78.5C567.517 77.552 567.351 76.552 567.5 75.5C568.496 75.4142 569.329 75.7476 570 76.5C570.333 74.1667 570.667 71.8333 571 69.5C571.608 71.0664 572.442 72.3998 573.5 73.5Z" fill="white"/>
<path fill-rule="evenodd" clip-rule="evenodd" d="M549.5 71.5C549.5 109.833 549.5 148.167 549.5 186.5C541.167 186.5 532.833 186.5 524.5 186.5C524.5 148.167 524.5 109.833 524.5 71.5C532.833 71.5 541.167 71.5 549.5 71.5Z" fill="#F8222A"/>
<path fill-rule="evenodd" clip-rule="evenodd" d="M525.5 72.5C533.167 72.5 540.833 72.5 548.5 72.5C548.5 110.167 548.5 147.833 548.5 185.5C540.833 185.5 533.167 185.5 525.5 185.5C525.5 147.833 525.5 110.167 525.5 72.5Z" fill="#E31F25"/>
<path opacity="0.196" fill-rule="evenodd" clip-rule="evenodd" d="M549.5 71.5C549.833 71.5 550.167 71.5 550.5 71.5C550.5 110.167 550.5 148.833 550.5 187.5C541.833 187.5 533.167 187.5 524.5 187.5C524.5 187.167 524.5 186.833 524.5 186.5C532.833 186.5 541.167 186.5 549.5 186.5C549.5 148.167 549.5 109.833 549.5 71.5Z" fill="#7A1414"/>
<path opacity="0.01" fill-rule="evenodd" clip-rule="evenodd" d="M22.5 80.5C21.8333 79.1667 21.8333 79.1667 22.5 80.5Z" fill="white"/>
<path opacity="0.01" fill-rule="evenodd" clip-rule="evenodd" d="M23.5 79.5C24.8333 80.1667 24.8333 80.1667 23.5 79.5Z" fill="white"/>
<path opacity="0.01" fill-rule="evenodd" clip-rule="evenodd" d="M583.5 79.5C583.833 79.5 584.167 79.5 584.5 79.5C584.315 80.1701 583.981 80.1701 583.5 79.5Z" fill="white"/>
<path opacity="0.01" fill-rule="evenodd" clip-rule="evenodd" d="M131.5 81.5C132.833 82.1667 132.833 82.1667 131.5 81.5Z" fill="white"/>
<path opacity="0.01" fill-rule="evenodd" clip-rule="evenodd" d="M576.5 83.5C577.833 84.1667 577.833 84.1667 576.5 83.5Z" fill="white"/>
<path opacity="0.012" fill-rule="evenodd" clip-rule="evenodd" d="M128.5 86.5C128.833 86.5 129.167 86.5 129.5 86.5C129.315 87.1701 128.981 87.1701 128.5 86.5Z" fill="white"/>
<path opacity="0.094" fill-rule="evenodd" clip-rule="evenodd" d="M550.5 71.5C550.167 71.5 549.833 71.5 549.5 71.5C541.167 71.5 532.833 71.5 524.5 71.5C524.5 109.833 524.5 148.167 524.5 186.5C523.501 148.004 523.168 109.337 523.5 70.5C533.252 70.1676 542.252 70.501 550.5 71.5Z" fill="#370B10"/>
<path opacity="0.012" fill-rule="evenodd" clip-rule="evenodd" d="M127.5 87.5C127.833 87.5 128.167 87.5 128.5 87.5C128.315 88.1701 127.981 88.1701 127.5 87.5Z" fill="white"/>
<path fill-rule="evenodd" clip-rule="evenodd" d="M22.5 92.5C28.7714 107.13 34.7714 121.964 40.5 137C28.8333 137.667 17.1667 137.667 5.5 137C11.587 122.326 17.2537 107.493 22.5 92.5Z" fill="#E41F26"/>
<path opacity="0.01" fill-rule="evenodd" clip-rule="evenodd" d="M475.5 102.5C476.623 101.243 477.289 101.576 477.5 103.5C476.833 103.167 476.167 102.833 475.5 102.5Z" fill="white"/>
<path opacity="0.999" fill-rule="evenodd" clip-rule="evenodd" d="M272.5 106.5C271.167 106.833 271.167 107.167 272.5 107.5C272.842 108.338 273.508 108.672 274.5 108.5C275.254 110.505 276.421 111.172 278 110.5C278.635 111.966 279.469 113.3 280.5 114.5C279.282 115.803 279.615 116.803 281.5 117.5C281.291 118.086 280.957 118.586 280.5 119C281.848 124.709 282.514 130.542 282.5 136.5C281.606 146.826 281.44 157.159 282 167.5C282.001 170.687 282.834 173.52 284.5 176C283.483 177.049 283.316 178.216 284 179.5C284.333 179.167 284.667 178.833 285 178.5C284.891 179.769 285.058 180.769 285.5 181.5C285.833 183.5 286.167 185.5 286.5 187.5C278.167 187.5 269.833 187.5 261.5 187.5C260.338 186.322 259.338 185.155 258.5 184C259.252 183.329 259.586 182.496 259.5 181.5C259.167 180.833 258.833 180.167 258.5 179.5C258.167 178.167 257.833 178.167 257.5 179.5C256.833 179.5 256.5 179.833 256.5 180.5C255.508 180.328 254.842 180.662 254.5 181.5C253.833 181.5 253.5 181.833 253.5 182.5C252.508 182.328 251.842 182.662 251.5 183.5C250.167 183.833 250.167 184.167 251.5 184.5C250.104 186.373 248.437 186.706 246.5 185.5C245.833 185.833 245.167 186.167 244.5 186.5C243.167 186.833 243.167 187.167 244.5 187.5C243.368 188.354 242.035 188.354 240.5 187.5C239.833 187.833 239.167 188.167 238.5 188.5C230.931 189.418 223.431 189.752 216 189.5C215.676 187.431 214.842 187.098 213.5 188.5C211.488 187.078 209.488 185.745 207.5 184.5C207.167 183.167 206.833 183.167 206.5 184.5C205.221 182.548 203.221 180.548 200.5 178.5C200.672 177.508 200.338 176.842 199.5 176.5C199.167 175.167 198.833 175.167 198.5 176.5C196.78 175.249 196.447 173.749 197.5 172C196.833 171.667 196.167 171.333 195.5 171C195.5 166.667 195.5 162.333 195.5 158C196.504 156.377 197.504 154.877 198.5 153.5C199.338 153.158 199.672 152.492 199.5 151.5C201.833 149.833 203.833 147.833 205.5 145.5C206.492 145.672 207.158 145.338 207.5 144.5C208.678 143.338 209.845 142.338 211 141.5C212.147 142.458 213.147 142.125 214 140.5C214.333 140.833 214.667 141.167 215 141.5C218.397 140.694 221.563 139.36 224.5 137.5C226.861 138.776 229.028 138.442 231 136.5C233.74 136.761 236.406 136.761 239 136.5C241.964 136.117 244.63 135.117 247 133.5C248.587 134.727 249.921 134.394 251 132.5C251.414 132.957 251.914 133.291 252.5 133.5C253.265 132.388 254.265 131.721 255.5 131.5C255.833 132.833 256.167 132.833 256.5 131.5C256.784 129.585 256.451 127.919 255.5 126.5C254.206 124.735 253.206 122.902 252.5 121C251.551 120.383 250.718 120.549 250 121.5C248.688 119.342 247.022 119.009 245 120.5C243.701 119.02 242.034 118.354 240 118.5C236.499 119.748 232.999 120.748 229.5 121.5C229.167 120.167 228.833 120.167 228.5 121.5C227.833 121.5 227.5 121.833 227.5 122.5C226.5 122.833 225.833 123.5 225.5 124.5C224.167 124.833 224.167 125.167 225.5 125.5C224.5 126.833 223.5 128.167 222.5 129.5C218.16 128.944 213.827 128.277 209.5 127.5C208.228 127.57 207.062 127.903 206 128.5C204.951 126.893 203.451 126.227 201.5 126.5C200.833 125.833 200.167 125.167 199.5 124.5C199.586 123.504 199.252 122.671 198.5 122C199.167 121.667 199.833 121.333 200.5 121C200.5 120 200.5 119 200.5 118C203.306 115.342 206.306 112.175 209.5 108.5C210.492 108.672 211.158 108.338 211.5 107.5C212.167 107.5 212.5 107.167 212.5 106.5C213.492 106.672 214.158 106.338 214.5 105.5C214.833 105.5 215.167 105.5 215.5 105.5C216.167 105.167 216.833 104.833 217.5 104.5C218.222 104.082 218.722 103.416 219 102.5C219.414 102.957 219.914 103.291 220.5 103.5C233.241 99.8814 246.074 99.5481 259 102.5C259.772 102.355 260.439 102.022 261 101.5C264.351 103.643 268.185 105.31 272.5 106.5ZM253.5 163.5C252.512 164.795 251.512 166.128 250.5 167.5C250.5 168.167 250.167 168.5 249.5 168.5C249.167 167.167 248.833 167.167 248.5 168.5C247.322 169.662 246.155 170.662 245 171.5C244.586 171.043 244.086 170.709 243.5 170.5C242.476 171.853 241.143 172.52 239.5 172.5C236.856 172.285 234.523 172.285 232.5 172.5C230.732 171.238 229.065 170.238 227.5 169.5C226.833 168.167 225.833 167.167 224.5 166.5C224.631 165.761 224.464 165.094 224 164.5C223.346 165.696 222.846 165.696 222.5 164.5C222.288 161.623 222.954 159.289 224.5 157.5C225.71 157.068 226.71 156.401 227.5 155.5C228.492 155.672 229.158 155.338 229.5 154.5C230.833 153.833 232.167 153.167 233.5 152.5C234.623 153.757 235.289 153.424 235.5 151.5C237.144 151.286 238.644 151.62 240 152.5C241.312 150.342 242.978 150.009 245 151.5C246.312 149.342 247.978 149.009 250 150.5C251.755 148.522 253.922 147.689 256.5 148C255.695 152.749 255.195 157.582 255 162.5C253.893 161.288 253.393 161.621 253.5 163.5Z" fill="#DC1F25"/>
<path fill-rule="evenodd" clip-rule="evenodd" d="M385.5 115.5C385.328 116.492 385.662 117.158 386.5 117.5C386.5 118.167 386.833 118.5 387.5 118.5C387.75 120.674 388.75 122.341 390.5 123.5C391.774 124.189 391.774 125.023 390.5 126C392.619 126.342 392.953 127.175 391.5 128.5C387.651 128.632 384.151 129.632 381 131.5C376.928 130.949 372.761 130.949 368.5 131.5C367.5 131.5 366.5 131.5 365.5 131.5C365.5 131.167 365.5 130.833 365.5 130.5C365.167 129.833 364.833 129.167 364.5 128.5C363.833 127.833 363.167 127.167 362.5 126.5C363.833 126.167 363.833 125.833 362.5 125.5C362.167 124.5 361.5 123.833 360.5 123.5C360.217 122.711 359.717 122.044 359 121.5C358.023 122.774 357.189 122.774 356.5 121.5C357.833 121.167 357.833 120.833 356.5 120.5C355.833 120.167 355.167 119.833 354.5 119.5C350.003 118.945 345.836 119.611 342 121.5C341.586 121.043 341.086 120.709 340.5 120.5C339.078 121.398 337.745 122.398 336.5 123.5C336.167 122.167 335.833 122.167 335.5 123.5C334.833 123.5 334.5 123.833 334.5 124.5C333.833 124.5 333.5 124.833 333.5 125.5C332.833 125.5 332.5 125.833 332.5 126.5C331.167 126.833 331.167 127.167 332.5 127.5C331.906 129.319 330.739 131.319 329 133.5C328.833 137 328.667 140.5 328.5 144C328.544 147.931 329.211 151.598 330.5 155C329.978 155.561 329.645 156.228 329.5 157C329.892 158.011 330.559 158.511 331.5 158.5C331.291 159.086 330.957 159.586 330.5 160C333.011 162.344 335.344 164.844 337.5 167.5C338.189 168.774 339.023 168.774 340 167.5C340.317 169.301 340.984 169.634 342 168.5C343.822 170.045 345.989 170.712 348.5 170.5C351.659 170.024 354.325 169.358 356.5 168.5C357.791 168.737 358.791 168.404 359.5 167.5C361.791 166.458 362.791 164.958 362.5 163C363.338 161.845 364.338 160.678 365.5 159.5C365.833 158.833 366.167 158.167 366.5 157.5C366.5 156.5 366.5 155.5 366.5 154.5C371.183 155.074 375.85 155.74 380.5 156.5C381.568 157.434 382.901 157.768 384.5 157.5C385.5 157.5 386.5 157.5 387.5 157.5C388.568 158.434 389.901 158.768 391.5 158.5C391.833 158.5 392.167 158.5 392.5 158.5C392.414 159.496 392.748 160.329 393.5 161C391.519 161.605 391.185 162.605 392.5 164C390.431 164.324 390.098 165.158 391.5 166.5C390.725 168.396 389.725 170.063 388.5 171.5C388.167 170.167 387.833 170.167 387.5 171.5C386.662 171.842 386.328 172.508 386.5 173.5C385.833 173.5 385.5 173.833 385.5 174.5C384.833 174.5 384.5 174.833 384.5 175.5C383.833 175.5 383.5 175.833 383.5 176.5C382.094 176.973 381.427 177.973 381.5 179.5C381.5 180.167 381.167 180.5 380.5 180.5C380.167 179.167 379.833 179.167 379.5 180.5C378.833 180.5 378.5 180.833 378.5 181.5C377.833 181.833 377.167 182.167 376.5 182.5C375.167 182.833 375.167 183.167 376.5 183.5C373.887 185.988 370.887 186.988 367.5 186.5C365.267 186.864 363.434 187.864 362 189.5C352.667 189.5 343.333 189.5 334 189.5C333.583 188.244 332.75 187.577 331.5 187.5C330.833 187.167 330.167 186.833 329.5 186.5C328.85 186.804 328.183 187.137 327.5 187.5C326.23 186.438 325.063 185.438 324 184.5C323.282 185.451 322.449 185.617 321.5 185C320.934 184.005 320.267 183.172 319.5 182.5C319.167 181.167 318.833 181.167 318.5 182.5C316.621 182.607 316.288 182.107 317.5 181C316.627 179.955 315.627 179.122 314.5 178.5C313.5 176.833 312.167 175.5 310.5 174.5C309.473 172.806 308.139 171.473 306.5 170.5C307.833 170.167 307.833 169.833 306.5 169.5C306.672 168.508 306.338 167.842 305.5 167.5C305.5 167.167 305.5 166.833 305.5 166.5C305.167 165.833 304.833 165.167 304.5 164.5C303.89 163.609 303.557 162.609 303.5 161.5C303.167 160.833 302.833 160.167 302.5 159.5C302.5 158.833 302.5 158.167 302.5 157.5C302.167 156.833 301.833 156.167 301.5 155.5C300.548 148.593 300.214 141.759 300.5 135C301.595 132.805 302.595 130.638 303.5 128.5C302.098 127.158 302.431 126.324 304.5 126C303.465 124.493 303.632 122.993 305 121.5C308.307 118.343 311.807 114.677 315.5 110.5C316.492 110.672 317.158 110.338 317.5 109.5C318.167 109.5 318.5 109.167 318.5 108.5C319.492 108.672 320.158 108.338 320.5 107.5C321.833 107.167 321.833 106.833 320.5 106.5C321.751 104.78 323.251 104.447 325 105.5C326.258 102.945 328.091 102.278 330.5 103.5C332.912 102.797 335.412 101.797 338 100.5C346.154 100.162 354.321 100.829 362.5 102.5C363.962 101.529 365.295 101.862 366.5 103.5C367.803 102.282 368.803 102.615 369.5 104.5C370.086 104.291 370.586 103.957 371 103.5C372 104.5 373 105.5 374 106.5C374.333 106.167 374.667 105.833 375 105.5C377.99 108.641 381.49 111.974 385.5 115.5Z" fill="#DC1F25"/>
<path opacity="0.125" fill-rule="evenodd" clip-rule="evenodd" d="M435.5 112.5C434.833 112.5 434.5 112.833 434.5 113.5C434.167 113.5 433.833 113.5 433.5 113.5C433.5 110.167 433.5 106.833 433.5 103.5C425.5 103.5 417.5 103.5 409.5 103.5C417.08 102.501 425.413 102.168 434.5 102.5C434.253 105.939 434.586 109.272 435.5 112.5Z" fill="#430C0B"/>
<path fill-rule="evenodd" clip-rule="evenodd" d="M475.5 102.5C476.167 102.833 476.833 103.167 477.5 103.5C480.86 102.993 483.86 103.993 486.5 106.5C485.167 106.833 485.167 107.167 486.5 107.5C486.842 108.338 487.508 108.672 488.5 108.5C488.833 109.5 489.5 110.167 490.5 110.5C491.5 112.167 492.833 113.5 494.5 114.5C494.833 115.5 495.5 116.167 496.5 116.5C497.167 117.167 497.833 117.833 498.5 118.5C497.167 118.833 497.167 119.167 498.5 119.5C499.662 120.678 500.662 121.845 501.5 123C500.944 123.383 500.611 123.883 500.5 124.5C500.833 125.167 501.167 125.833 501.5 126.5C502.091 127.151 502.757 127.818 503.5 128.5C503.291 129.086 502.957 129.586 502.5 130C503.264 132.069 503.764 134.236 504 136.5C504.308 143.772 504.475 150.939 504.5 158C501.778 162.327 499.444 167.494 497.5 173.5C497.167 172.167 496.833 172.167 496.5 173.5C495.833 173.5 495.5 173.833 495.5 174.5C494.833 174.5 494.5 174.833 494.5 175.5C493.167 177.5 491.5 179.167 489.5 180.5C488.833 180.5 488.5 180.833 488.5 181.5C487.833 181.5 487.5 181.833 487.5 182.5C486.508 182.328 485.842 182.662 485.5 183.5C484.167 183.833 484.167 184.167 485.5 184.5C483.635 186.534 481.468 187.201 479 186.5C478.667 187.167 478.333 187.833 478 188.5C477.329 187.748 476.496 187.414 475.5 187.5C474.833 187.833 474.167 188.167 473.5 188.5C467.153 189.788 460.82 189.788 454.5 188.5C453.833 188.167 453.167 187.833 452.5 187.5C451.504 187.414 450.671 187.748 450 188.5C449.676 186.431 448.842 186.098 447.5 187.5C445.185 186.84 443.519 185.507 442.5 183.5C442.5 182.833 442.167 182.5 441.5 182.5C441.158 181.662 440.492 181.328 439.5 181.5C438.542 180.038 437.376 178.705 436 177.5C435.177 191.408 435.344 205.242 436.5 219C427.167 219.667 417.833 219.667 408.5 219C409.496 180.573 409.83 142.073 409.5 103.5C417.5 103.5 425.5 103.5 433.5 103.5C433.5 106.833 433.5 110.167 433.5 113.5C433.833 114.833 434.167 114.833 434.5 113.5C435.167 113.5 435.5 113.167 435.5 112.5C437.167 111.5 438.5 110.167 439.5 108.5C440.167 108.167 440.833 107.833 441.5 107.5C442.88 105.393 444.38 104.06 446 103.5C446.333 103.833 446.667 104.167 447 104.5C447.605 102.519 448.605 102.185 450 103.5C450.324 101.431 451.158 101.098 452.5 102.5C453.748 101.96 454.915 101.293 456 100.5C461.349 100.579 466.682 100.579 472 100.5C472.816 101.823 473.983 102.489 475.5 102.5ZM466.5 122.5C466.5 123.167 466.833 123.5 467.5 123.5C467.842 124.338 468.508 124.672 469.5 124.5C470.512 125.872 471.512 127.205 472.5 128.5C472.856 130.19 473.856 131.19 475.5 131.5C475.389 132.117 475.056 132.617 474.5 133C476.074 134.826 476.907 136.993 477 139.5C477.667 143.167 477.667 146.833 477 150.5C476.933 153.047 476.099 155.214 474.5 157C474.957 157.414 475.291 157.914 475.5 158.5C474.602 159.922 473.602 161.255 472.5 162.5C471.833 162.5 471.5 162.833 471.5 163.5C470.167 164.167 469.167 165.167 468.5 166.5C467.833 166.5 467.5 166.833 467.5 167.5C466.508 167.328 465.842 167.662 465.5 168.5C464.167 169.167 462.833 169.833 461.5 170.5C458.5 170.5 455.5 170.5 452.5 170.5C449.851 170.091 447.851 169.091 446.5 167.5C446.5 166.833 446.167 166.5 445.5 166.5C443.833 165.167 442.167 163.833 440.5 162.5C441.833 162.167 441.833 161.833 440.5 161.5C439.5 160.167 438.5 158.833 437.5 157.5C438.757 156.377 438.424 155.711 436.5 155.5C437.677 153.897 437.511 152.564 436 151.5C435.874 147.359 435.708 143.359 435.5 139.5C435.709 138.006 436.376 136.839 437.5 136C436.483 134.951 436.316 133.784 437 132.5C438.666 133.34 438.833 132.84 437.5 131C438.416 130.722 439.082 130.222 439.5 129.5C440.338 129.158 440.672 128.492 440.5 127.5C441.833 126.833 442.833 125.833 443.5 124.5C444.71 124.068 445.71 123.401 446.5 122.5C447.239 122.631 447.906 122.464 448.5 122C447.304 121.346 447.304 120.846 448.5 120.5C449.167 120.833 449.833 121.167 450.5 121.5C454.251 119.503 458.251 119.003 462.5 120C464.642 120.438 465.975 121.272 466.5 122.5Z" fill="#DF1F25"/>
<path opacity="0.01" fill-rule="evenodd" clip-rule="evenodd" d="M217.5 104.5C216.833 104.833 216.167 105.167 215.5 105.5C215.711 103.576 216.377 103.243 217.5 104.5Z" fill="white"/>
<path opacity="0.027" fill-rule="evenodd" clip-rule="evenodd" d="M214.5 105.5C214.158 106.338 213.492 106.672 212.5 106.5C212.167 106.5 211.833 106.5 211.5 106.5C212.172 105.733 213.005 105.066 214 104.5C214.399 104.728 214.565 105.062 214.5 105.5Z" fill="#250813"/>
<path opacity="0.01" fill-rule="evenodd" clip-rule="evenodd" d="M272.5 106.5C273.473 106.987 274.473 107.487 275.5 108C275.272 108.399 274.938 108.565 274.5 108.5C273.508 108.672 272.842 108.338 272.5 107.5C272.5 107.167 272.5 106.833 272.5 106.5Z" fill="white"/>
<path opacity="0.01" fill-rule="evenodd" clip-rule="evenodd" d="M441.5 107.5C440.833 107.833 440.167 108.167 439.5 108.5C438.262 108.19 438.262 107.69 439.5 107C440.437 106.308 441.103 106.475 441.5 107.5Z" fill="white"/>
<path opacity="0.106" fill-rule="evenodd" clip-rule="evenodd" d="M211.5 106.5C211.5 106.833 211.5 107.167 211.5 107.5C211.158 108.338 210.492 108.672 209.5 108.5C209.062 108.565 208.728 108.399 208.5 108C209.527 107.487 210.527 106.987 211.5 106.5Z" fill="#40130C"/>
<path opacity="0.055" fill-rule="evenodd" clip-rule="evenodd" d="M320.5 106.5C320.5 106.833 320.5 107.167 320.5 107.5C320.158 108.338 319.492 108.672 318.5 108.5C318.167 108.5 317.833 108.5 317.5 108.5C318.29 107.599 319.29 106.932 320.5 106.5Z" fill="#2C0F09"/>
<path opacity="0.01" fill-rule="evenodd" clip-rule="evenodd" d="M486.5 106.5C487.473 106.987 488.473 107.487 489.5 108C489.272 108.399 488.938 108.565 488.5 108.5C487.508 108.672 486.842 108.338 486.5 107.5C486.5 107.167 486.5 106.833 486.5 106.5Z" fill="white"/>
<path opacity="0.059" fill-rule="evenodd" clip-rule="evenodd" d="M317.5 108.5C317.5 108.833 317.5 109.167 317.5 109.5C317.158 110.338 316.492 110.672 315.5 110.5C315.062 110.565 314.728 110.399 314.5 110C315.527 109.487 316.527 108.987 317.5 108.5Z" fill="#371109"/>
<path opacity="0.01" fill-rule="evenodd" clip-rule="evenodd" d="M494.5 114.5C492.833 113.5 491.5 112.167 490.5 110.5C490.435 110.062 490.601 109.728 491 109.5C492.5 111 494 112.5 495.5 114C495.272 114.399 494.938 114.565 494.5 114.5Z" fill="#250F09"/>
<path opacity="0.01" fill-rule="evenodd" clip-rule="evenodd" d="M76.5 114.5C75.8333 113.167 75.8333 113.167 76.5 114.5Z" fill="white"/>
<path opacity="0.01" fill-rule="evenodd" clip-rule="evenodd" d="M387.5 117.5C387.167 117.5 386.833 117.5 386.5 117.5C385.662 117.158 385.328 116.492 385.5 115.5C385.435 115.062 385.601 114.728 386 114.5C386.513 115.527 387.013 116.527 387.5 117.5Z" fill="#1C0A06"/>
<path opacity="0.012" fill-rule="evenodd" clip-rule="evenodd" d="M496.5 115.5C497.833 116.167 497.833 116.167 496.5 115.5Z" fill="white"/>
<path opacity="0.01" fill-rule="evenodd" clip-rule="evenodd" d="M167.5 116.5C167.833 116.5 168.167 116.5 168.5 116.5C168.315 117.17 167.981 117.17 167.5 116.5Z" fill="white"/>
<path opacity="0.01" fill-rule="evenodd" clip-rule="evenodd" d="M166.5 117.5C166.833 117.5 167.167 117.5 167.5 117.5C167.315 118.17 166.981 118.17 166.5 117.5Z" fill="white"/>
<path opacity="0.01" fill-rule="evenodd" clip-rule="evenodd" d="M387.5 117.5C389.008 119.181 390.008 121.181 390.5 123.5C388.75 122.341 387.75 120.674 387.5 118.5C387.5 118.167 387.5 117.833 387.5 117.5Z" fill="white"/>
<path opacity="0.01" fill-rule="evenodd" clip-rule="evenodd" d="M165.5 118.5C165.833 118.5 166.167 118.5 166.5 118.5C166.315 119.17 165.981 119.17 165.5 118.5Z" fill="white"/>
<path opacity="0.01" fill-rule="evenodd" clip-rule="evenodd" d="M498.5 118.5C499.833 119.167 499.833 119.167 498.5 118.5Z" fill="white"/>
<path opacity="0.01" fill-rule="evenodd" clip-rule="evenodd" d="M164.5 119.5C164.833 119.5 165.167 119.5 165.5 119.5C165.315 120.17 164.981 120.17 164.5 119.5Z" fill="white"/>
<path opacity="0.01" fill-rule="evenodd" clip-rule="evenodd" d="M163.5 120.5C163.833 120.5 164.167 120.5 164.5 120.5C164.315 121.17 163.981 121.17 163.5 120.5Z" fill="white"/>
<path opacity="0.01" fill-rule="evenodd" clip-rule="evenodd" d="M354.5 119.5C355.167 119.833 355.833 120.167 356.5 120.5C356.5 120.833 356.5 121.167 356.5 121.5C355.167 121.5 354.5 120.833 354.5 119.5Z" fill="#1C0602"/>
<path opacity="0.01" fill-rule="evenodd" clip-rule="evenodd" d="M50.5 121.5C51.8333 122.167 51.8333 122.167 50.5 121.5Z" fill="white"/>
<path opacity="0.01" fill-rule="evenodd" clip-rule="evenodd" d="M162.5 121.5C162.833 121.5 163.167 121.5 163.5 121.5C163.315 122.17 162.981 122.17 162.5 121.5Z" fill="white"/>
<path opacity="0.01" fill-rule="evenodd" clip-rule="evenodd" d="M228.5 121.5C228.833 121.5 229.167 121.5 229.5 121.5C229.315 122.17 228.981 122.17 228.5 121.5Z" fill="white"/>
<path opacity="0.01" fill-rule="evenodd" clip-rule="evenodd" d="M161.5 122.5C161.833 122.5 162.167 122.5 162.5 122.5C162.315 123.17 161.981 123.17 161.5 122.5Z" fill="white"/>
<path opacity="0.01" fill-rule="evenodd" clip-rule="evenodd" d="M227.5 122.5C227.833 122.5 228.167 122.5 228.5 122.5C227.833 123.833 226.833 124.833 225.5 125.5C225.5 125.167 225.5 124.833 225.5 124.5C225.833 123.5 226.5 122.833 227.5 122.5Z" fill="white"/>
<path opacity="0.01" fill-rule="evenodd" clip-rule="evenodd" d="M160.5 123.5C160.833 123.5 161.167 123.5 161.5 123.5C161.315 124.17 160.981 124.17 160.5 123.5Z" fill="white"/>
<path opacity="0.01" fill-rule="evenodd" clip-rule="evenodd" d="M335.5 123.5C335.833 123.5 336.167 123.5 336.5 123.5C336.315 124.17 335.981 124.17 335.5 123.5Z" fill="white"/>
<path opacity="0.01" fill-rule="evenodd" clip-rule="evenodd" d="M360.5 123.5C361.5 123.833 362.167 124.5 362.5 125.5C362.5 125.833 362.5 126.167 362.5 126.5C360.65 125.758 359.984 124.758 360.5 123.5Z" fill="white"/>
<path opacity="0.01" fill-rule="evenodd" clip-rule="evenodd" d="M159.5 124.5C159.833 124.5 160.167 124.5 160.5 124.5C160.315 125.17 159.981 125.17 159.5 124.5Z" fill="white"/>
<path opacity="0.01" fill-rule="evenodd" clip-rule="evenodd" d="M334.5 124.5C334.833 124.5 335.167 124.5 335.5 124.5C335.167 125.5 334.5 126.167 333.5 126.5C333.5 126.167 333.5 125.833 333.5 125.5C333.5 124.833 333.833 124.5 334.5 124.5Z" fill="white"/>
<path opacity="0.035" fill-rule="evenodd" clip-rule="evenodd" d="M469.5 124.5C471.912 124.694 472.912 126.027 472.5 128.5C471.512 127.205 470.512 125.872 469.5 124.5Z" fill="#371311"/>
<path opacity="0.01" fill-rule="evenodd" clip-rule="evenodd" d="M500.5 124.5C502.424 124.711 502.757 125.377 501.5 126.5C501.167 125.833 500.833 125.167 500.5 124.5Z" fill="white"/>
<path opacity="0.01" fill-rule="evenodd" clip-rule="evenodd" d="M158.5 125.5C158.833 125.5 159.167 125.5 159.5 125.5C159.315 126.17 158.981 126.17 158.5 125.5Z" fill="white"/>
<path opacity="0.01" fill-rule="evenodd" clip-rule="evenodd" d="M199.5 124.5C200.167 125.167 200.833 125.833 201.5 126.5C200.325 126.719 199.325 126.386 198.5 125.5C198.624 124.893 198.957 124.56 199.5 124.5Z" fill="#34110F"/>
<path opacity="0.01" fill-rule="evenodd" clip-rule="evenodd" d="M157.5 126.5C157.833 126.5 158.167 126.5 158.5 126.5C158.315 127.17 157.981 127.17 157.5 126.5Z" fill="white"/>
<path opacity="0.208" fill-rule="evenodd" clip-rule="evenodd" d="M255.5 126.5C256.451 127.919 256.784 129.585 256.5 131.5C256.167 131.5 255.833 131.5 255.5 131.5C255.178 129.525 255.178 127.858 255.5 126.5Z" fill="#4A0A09"/>
<path opacity="0.01" fill-rule="evenodd" clip-rule="evenodd" d="M332.5 126.5C332.833 126.5 333.167 126.5 333.5 126.5C333.315 127.17 332.981 127.17 332.5 126.5Z" fill="white"/>
<path opacity="0.01" fill-rule="evenodd" clip-rule="evenodd" d="M156.5 127.5C156.833 127.5 157.167 127.5 157.5 127.5C157.315 128.17 156.981 128.17 156.5 127.5Z" fill="white"/>
<path opacity="0.01" fill-rule="evenodd" clip-rule="evenodd" d="M364.5 128.5C364.833 129.167 365.167 129.833 365.5 130.5C363.576 130.289 363.243 129.623 364.5 128.5Z" fill="white"/>
<path opacity="0.01" fill-rule="evenodd" clip-rule="evenodd" d="M391.5 128.5C392.833 129.167 392.833 129.167 391.5 128.5Z" fill="white"/>
<path opacity="0.01" fill-rule="evenodd" clip-rule="evenodd" d="M49.5 129.5C48.8333 130.167 48.8333 130.167 49.5 129.5Z" fill="white"/>
<path opacity="0.01" fill-rule="evenodd" clip-rule="evenodd" d="M222.5 129.5C223.833 130.167 223.833 130.167 222.5 129.5Z" fill="white"/>
<path opacity="0.01" fill-rule="evenodd" clip-rule="evenodd" d="M472.5 128.5C474.144 128.81 475.144 129.81 475.5 131.5C473.856 131.19 472.856 130.19 472.5 128.5Z" fill="#260E0E"/>
<path opacity="0.01" fill-rule="evenodd" clip-rule="evenodd" d="M365.5 131.5C366.5 131.5 367.5 131.5 368.5 131.5C368.631 132.239 368.464 132.906 368 133.5C366.933 132.809 365.766 132.309 364.5 132C364.728 131.601 365.062 131.435 365.5 131.5Z" fill="#30120E"/>
<path opacity="0.016" fill-rule="evenodd" clip-rule="evenodd" d="M46.5 142.5C47.8333 143.167 47.8333 143.167 46.5 142.5Z" fill="white"/>
<path opacity="0.035" fill-rule="evenodd" clip-rule="evenodd" d="M207.5 144.5C207.158 145.338 206.492 145.672 205.5 145.5C205.062 145.565 204.728 145.399 204.5 145C205.416 144.626 206.25 144.126 207 143.5C207.399 143.728 207.565 144.062 207.5 144.5Z" fill="#341310"/>
<path opacity="0.01" fill-rule="evenodd" clip-rule="evenodd" d="M199.5 151.5C199.672 152.492 199.338 153.158 198.5 153.5C198.062 153.565 197.728 153.399 197.5 153C198.126 152.25 198.626 151.416 199 150.5C199.399 150.728 199.565 151.062 199.5 151.5Z" fill="white"/>
<path opacity="0.01" fill-rule="evenodd" clip-rule="evenodd" d="M235.5 151.5C235.289 153.424 234.623 153.757 233.5 152.5C234.167 152.167 234.833 151.833 235.5 151.5Z" fill="white"/>
<path opacity="0.01" fill-rule="evenodd" clip-rule="evenodd" d="M227.5 155.5C226.71 156.401 225.71 157.068 224.5 157.5C224.821 155.952 225.821 155.285 227.5 155.5Z" fill="white"/>
<path opacity="0.01" fill-rule="evenodd" clip-rule="evenodd" d="M301.5 155.5C301.833 156.167 302.167 156.833 302.5 157.5C300.576 157.289 300.243 156.623 301.5 155.5Z" fill="white"/>
<path opacity="0.016" fill-rule="evenodd" clip-rule="evenodd" d="M384.5 157.5C382.901 157.768 381.568 157.434 380.5 156.5C380.435 156.062 380.601 155.728 381 155.5C382.302 156.085 383.469 156.751 384.5 157.5Z" fill="#4F080B"/>
<path opacity="0.224" fill-rule="evenodd" clip-rule="evenodd" d="M436.5 155.5C438.424 155.711 438.757 156.377 437.5 157.5C436.662 157.158 436.328 156.492 436.5 155.5Z" fill="#53110A"/>
<path opacity="0.01" fill-rule="evenodd" clip-rule="evenodd" d="M366.5 157.5C366.167 158.167 365.833 158.833 365.5 159.5C364.243 158.377 364.576 157.711 366.5 157.5Z" fill="white"/>
<path opacity="0.01" fill-rule="evenodd" clip-rule="evenodd" d="M391.5 158.5C389.901 158.768 388.568 158.434 387.5 157.5C387.435 157.062 387.601 156.728 388 156.5C389.302 157.085 390.469 157.751 391.5 158.5Z" fill="#34100C"/>
<path opacity="0.02" fill-rule="evenodd" clip-rule="evenodd" d="M392.5 157.5C393.833 158.167 393.833 158.167 392.5 157.5Z" fill="white"/>
<path opacity="0.01" fill-rule="evenodd" clip-rule="evenodd" d="M302.5 159.5C302.833 160.167 303.167 160.833 303.5 161.5C301.576 161.289 301.243 160.623 302.5 159.5Z" fill="#1B0400"/>
<path opacity="0.01" fill-rule="evenodd" clip-rule="evenodd" d="M471.5 163.5C471.5 165.5 470.5 166.5 468.5 166.5C469.167 165.167 470.167 164.167 471.5 163.5Z" fill="white"/>
<path opacity="0.01" fill-rule="evenodd" clip-rule="evenodd" d="M304.5 164.5C304.833 165.167 305.167 165.833 305.5 166.5C303.576 166.289 303.243 165.623 304.5 164.5Z" fill="#1C0C09"/>
<path opacity="0.051" fill-rule="evenodd" clip-rule="evenodd" d="M253.5 163.5C253.912 165.973 252.912 167.306 250.5 167.5C251.512 166.128 252.512 164.795 253.5 163.5Z" fill="#33100B"/>
<path opacity="0.012" fill-rule="evenodd" clip-rule="evenodd" d="M337.5 166.5C338.833 167.167 338.833 167.167 337.5 166.5Z" fill="white"/>
<path opacity="0.01" fill-rule="evenodd" clip-rule="evenodd" d="M359.5 167.5C358.791 168.404 357.791 168.737 356.5 168.5C357.172 167.733 358.005 167.066 359 166.5C359.399 166.728 359.565 167.062 359.5 167.5Z" fill="#3C0E01"/>
<path opacity="0.01" fill-rule="evenodd" clip-rule="evenodd" d="M305.5 167.5C306.338 167.842 306.672 168.508 306.5 169.5C306.5 169.833 306.5 170.167 306.5 170.5C305.733 169.828 305.066 168.995 304.5 168C304.728 167.601 305.062 167.435 305.5 167.5Z" fill="#1F0700"/>
<path opacity="0.027" fill-rule="evenodd" clip-rule="evenodd" d="M461.5 170.5C458.5 171.833 455.5 171.833 452.5 170.5C455.5 170.5 458.5 170.5 461.5 170.5Z" fill="#420B0F"/>
<path opacity="0.067" fill-rule="evenodd" clip-rule="evenodd" d="M239.5 172.5C237.167 173.833 234.833 173.833 232.5 172.5C234.523 172.285 236.856 172.285 239.5 172.5Z" fill="#46110F"/>
<path opacity="0.01" fill-rule="evenodd" clip-rule="evenodd" d="M387.5 171.5C387.833 171.5 388.167 171.5 388.5 171.5C388.068 172.71 387.401 173.71 386.5 174.5C386.5 174.167 386.5 173.833 386.5 173.5C386.328 172.508 386.662 171.842 387.5 171.5Z" fill="white"/>
<path opacity="0.012" fill-rule="evenodd" clip-rule="evenodd" d="M496.5 173.5C496.833 173.5 497.167 173.5 497.5 173.5C497.315 174.17 496.981 174.17 496.5 173.5Z" fill="white"/>
<path opacity="0.043" fill-rule="evenodd" clip-rule="evenodd" d="M310.5 174.5C312.167 175.5 313.5 176.833 314.5 178.5C314.565 178.938 314.399 179.272 314 179.5C312.5 178 311 176.5 309.5 175C309.728 174.601 310.062 174.435 310.5 174.5Z" fill="#39110C"/>
<path opacity="0.016" fill-rule="evenodd" clip-rule="evenodd" d="M385.5 174.5C385.833 174.5 386.167 174.5 386.5 174.5C386.315 175.17 385.981 175.17 385.5 174.5Z" fill="white"/>
<path opacity="0.016" fill-rule="evenodd" clip-rule="evenodd" d="M495.5 174.5C495.833 174.5 496.167 174.5 496.5 174.5C496.315 175.17 495.981 175.17 495.5 174.5Z" fill="white"/>
<path opacity="0.016" fill-rule="evenodd" clip-rule="evenodd" d="M384.5 175.5C384.833 175.5 385.167 175.5 385.5 175.5C385.315 176.17 384.981 176.17 384.5 175.5Z" fill="white"/>
<path opacity="0.01" fill-rule="evenodd" clip-rule="evenodd" d="M494.5 175.5C494.833 175.5 495.167 175.5 495.5 175.5C494.5 178.5 492.5 180.5 489.5 181.5C489.5 181.167 489.5 180.833 489.5 180.5C491.5 179.167 493.167 177.5 494.5 175.5Z" fill="white"/>
<path opacity="0.01" fill-rule="evenodd" clip-rule="evenodd" d="M198.5 176.5C198.833 176.5 199.167 176.5 199.5 176.5C200.338 176.842 200.672 177.508 200.5 178.5C200.565 178.938 200.399 179.272 200 179.5C199.487 178.473 198.987 177.473 198.5 176.5Z" fill="#270F0A"/>
<path opacity="0.012" fill-rule="evenodd" clip-rule="evenodd" d="M383.5 176.5C383.833 176.5 384.167 176.5 384.5 176.5C383.833 177.833 382.833 178.833 381.5 179.5C381.427 177.973 382.094 176.973 383.5 176.5Z" fill="#1F100D"/>
<path opacity="0.01" fill-rule="evenodd" clip-rule="evenodd" d="M257.5 179.5C257.833 179.5 258.167 179.5 258.5 179.5C258.833 180.167 259.167 180.833 259.5 181.5C257.708 181.366 256.042 181.699 254.5 182.5C254.5 182.167 254.5 181.833 254.5 181.5C254.842 180.662 255.508 180.328 256.5 180.5C257.167 180.5 257.5 180.167 257.5 179.5Z" fill="#1F0D17"/>
<path opacity="0.024" fill-rule="evenodd" clip-rule="evenodd" d="M62.5 180.5C61.8333 181.167 61.8333 181.167 62.5 180.5Z" fill="white"/>
<path opacity="0.024" fill-rule="evenodd" clip-rule="evenodd" d="M143.5 180.5C144.833 181.167 144.833 181.167 143.5 180.5Z" fill="white"/>
<path opacity="0.02" fill-rule="evenodd" clip-rule="evenodd" d="M379.5 180.5C379.833 180.5 380.167 180.5 380.5 180.5C380.315 181.17 379.981 181.17 379.5 180.5Z" fill="white"/>
<path opacity="0.01" fill-rule="evenodd" clip-rule="evenodd" d="M285.5 181.5C286.601 182.848 287.601 184.348 288.5 186C287.956 186.717 287.289 187.217 286.5 187.5C286.167 185.5 285.833 183.5 285.5 181.5Z" fill="white"/>
<path opacity="0.01" fill-rule="evenodd" clip-rule="evenodd" d="M378.5 181.5C378.833 181.5 379.167 181.5 379.5 181.5C379.027 182.906 378.027 183.573 376.5 183.5C376.5 183.167 376.5 182.833 376.5 182.5C377.167 182.167 377.833 181.833 378.5 181.5Z" fill="white"/>
<path opacity="0.01" fill-rule="evenodd" clip-rule="evenodd" d="M439.5 181.5C440.492 181.328 441.158 181.662 441.5 182.5C441.5 182.833 441.5 183.167 441.5 183.5C440.527 183.013 439.527 182.513 438.5 182C438.728 181.601 439.062 181.435 439.5 181.5Z" fill="#1A0905"/>
<path opacity="0.016" fill-rule="evenodd" clip-rule="evenodd" d="M488.5 181.5C488.833 181.5 489.167 181.5 489.5 181.5C489.315 182.17 488.981 182.17 488.5 181.5Z" fill="white"/>
<path opacity="0.01" fill-rule="evenodd" clip-rule="evenodd" d="M253.5 182.5C253.833 182.5 254.167 182.5 254.5 182.5C253.71 183.401 252.71 184.068 251.5 184.5C251.5 184.167 251.5 183.833 251.5 183.5C251.842 182.662 252.508 182.328 253.5 182.5Z" fill="white"/>
<path opacity="0.012" fill-rule="evenodd" clip-rule="evenodd" d="M318.5 182.5C318.833 182.5 319.167 182.5 319.5 182.5C319.315 183.17 318.981 183.17 318.5 182.5Z" fill="white"/>
<path opacity="0.01" fill-rule="evenodd" clip-rule="evenodd" d="M487.5 182.5C487.833 182.5 488.167 182.5 488.5 182.5C487.71 183.401 486.71 184.068 485.5 184.5C485.5 184.167 485.5 183.833 485.5 183.5C485.842 182.662 486.508 182.328 487.5 182.5Z" fill="white"/>
<path opacity="0.01" fill-rule="evenodd" clip-rule="evenodd" d="M441.5 183.5C441.833 183.5 442.167 183.5 442.5 183.5C442.315 184.17 441.981 184.17 441.5 183.5Z" fill="white"/>
<path opacity="0.016" fill-rule="evenodd" clip-rule="evenodd" d="M206.5 184.5C206.833 184.5 207.167 184.5 207.5 184.5C207.315 185.17 206.981 185.17 206.5 184.5Z" fill="white"/>
<path opacity="0.01" fill-rule="evenodd" clip-rule="evenodd" d="M246.5 185.5C246.5 186.833 245.833 187.5 244.5 187.5C244.5 187.167 244.5 186.833 244.5 186.5C245.167 186.167 245.833 185.833 246.5 185.5Z" fill="#1D0A06"/>
<path opacity="0.01" fill-rule="evenodd" clip-rule="evenodd" d="M261.5 187.5C260.833 188.167 260.833 188.167 261.5 187.5Z" fill="white"/>
<path opacity="0.01" fill-rule="evenodd" clip-rule="evenodd" d="M329.5 186.5C330.167 186.833 330.833 187.167 331.5 187.5C330.377 188.757 329.711 188.424 329.5 186.5Z" fill="white"/>
<path opacity="0.01" fill-rule="evenodd" clip-rule="evenodd" d="M524.5 187.5C523.833 188.167 523.833 188.167 524.5 187.5Z" fill="white"/>
<path opacity="0.01" fill-rule="evenodd" clip-rule="evenodd" d="M240.5 187.5C240.289 189.424 239.623 189.757 238.5 188.5C239.167 188.167 239.833 187.833 240.5 187.5Z" fill="#1B0905"/>
<path opacity="0.01" fill-rule="evenodd" clip-rule="evenodd" d="M452.5 187.5C453.167 187.833 453.833 188.167 454.5 188.5C453.377 189.757 452.711 189.424 452.5 187.5Z" fill="#1B0602"/>
<path opacity="0.01" fill-rule="evenodd" clip-rule="evenodd" d="M475.5 187.5C475.289 189.424 474.623 189.757 473.5 188.5C474.167 188.167 474.833 187.833 475.5 187.5Z" fill="white"/>
<path opacity="0.984" fill-rule="evenodd" clip-rule="evenodd" d="M424.5 255.5C423.504 255.414 422.671 255.748 422 256.5C421.5 250.175 421.334 243.842 421.5 237.5C423.109 237.094 424.443 237.094 425.5 237.5C424.543 243.439 424.21 249.439 424.5 255.5Z" fill="white"/>
<path opacity="0.01" fill-rule="evenodd" clip-rule="evenodd" d="M213.5 241.5C214.833 242.167 214.833 242.167 213.5 241.5Z" fill="white"/>
<path opacity="0.012" fill-rule="evenodd" clip-rule="evenodd" d="M231.5 242.5C230.833 241.167 230.833 241.167 231.5 242.5Z" fill="white"/>
<path opacity="0.01" fill-rule="evenodd" clip-rule="evenodd" d="M234.5 241.5C235.833 242.167 235.833 242.167 234.5 241.5Z" fill="white"/>
<path opacity="0.012" fill-rule="evenodd" clip-rule="evenodd" d="M246.5 242.5C245.833 241.167 245.833 241.167 246.5 242.5Z" fill="white"/>
<path opacity="0.01" fill-rule="evenodd" clip-rule="evenodd" d="M249.5 241.5C250.833 242.167 250.833 242.167 249.5 241.5Z" fill="white"/>
<path opacity="0.01" fill-rule="evenodd" clip-rule="evenodd" d="M267.5 242.5C266.833 241.167 266.833 241.167 267.5 242.5Z" fill="white"/>
<path opacity="0.012" fill-rule="evenodd" clip-rule="evenodd" d="M390.5 242.5C389.833 241.167 389.833 241.167 390.5 242.5Z" fill="white"/>
<path opacity="0.888" fill-rule="evenodd" clip-rule="evenodd" d="M198.5 242.5C199.091 243.151 199.757 243.818 200.5 244.5C199.674 245.451 199.508 246.451 200 247.5C201.852 246.305 203.019 244.638 203.5 242.5C204.822 242.67 205.989 242.337 207 241.5C205.856 245.35 207.023 246.183 210.5 244C209.549 243.282 209.383 242.449 210 241.5C211.011 242.337 212.178 242.67 213.5 242.5C215.06 244.129 214.727 245.296 212.5 246C213.668 247.406 213.335 248.572 211.5 249.5C211.709 250.086 212.043 250.586 212.5 251C211.027 251.71 210.36 252.876 210.5 254.5C209.833 254.5 209.5 254.833 209.5 255.5C208.5 255.5 207.5 255.5 206.5 255.5C206.573 253.973 205.906 252.973 204.5 252.5C203.449 253.222 202.782 254.222 202.5 255.5C201.5 255.5 200.5 255.5 199.5 255.5C198.909 254.849 198.243 254.182 197.5 253.5C198.668 252.094 198.335 250.928 196.5 250C196.957 249.586 197.291 249.086 197.5 248.5C196.65 246.379 195.65 244.212 194.5 242C195.819 241.805 197.153 241.972 198.5 242.5ZM207.5 246.5C209.337 246.639 209.67 247.306 208.5 248.5C207.702 248.043 207.369 247.376 207.5 246.5ZM204.5 252.5C203.287 251.503 203.454 250.503 205 249.5C205.47 250.577 205.303 251.577 204.5 252.5Z" fill="white"/>
<path opacity="0.01" fill-rule="evenodd" clip-rule="evenodd" d="M203.5 242.5C202.833 241.167 202.833 241.167 203.5 242.5Z" fill="white"/>
<path opacity="0.012" fill-rule="evenodd" clip-rule="evenodd" d="M198.5 241.5C199.833 242.167 199.833 242.167 198.5 241.5Z" fill="white"/>
<path opacity="0.908" fill-rule="evenodd" clip-rule="evenodd" d="M338.5 243.5C339.43 247.4 339.763 251.4 339.5 255.5C335.721 255.339 332.055 255.672 328.5 256.5C327.713 255.758 327.047 254.925 326.5 254C327.833 252.667 327.833 251.333 326.5 250C327.167 249.333 327.833 248.667 328.5 248C327.949 246.602 327.616 245.268 327.5 244C328.167 243.333 328.833 242.667 329.5 242C332.026 242.632 334.526 242.465 337 241.5C337.278 242.416 337.778 243.082 338.5 243.5ZM332.5 246.5C333.354 244.066 334.354 244.233 335.5 247C334.423 247.47 333.423 247.303 332.5 246.5ZM333.5 252.5C332.352 253.895 331.352 253.728 330.5 252C332.938 249.87 333.938 250.036 333.5 252.5Z" fill="white"/>
<path opacity="0.012" fill-rule="evenodd" clip-rule="evenodd" d="M338.5 242.5C339.833 243.167 339.833 243.167 338.5 242.5Z" fill="white"/>
<path opacity="0.863" fill-rule="evenodd" clip-rule="evenodd" d="M363.5 252.5C364.209 253.404 365.209 253.737 366.5 253.5C366.295 250.014 367.629 249.014 370.5 250.5C371.354 252.035 371.354 253.368 370.5 254.5C370.167 253.167 369.833 253.167 369.5 254.5C368.167 254.833 368.167 255.167 369.5 255.5C367.16 256.089 364.66 256.422 362 256.5C360.5 255.667 359.333 254.5 358.5 253C359.498 250.188 359.664 247.354 359 244.5C360.019 243.313 361.186 242.313 362.5 241.5C364.5 242.833 366.5 242.833 368.5 241.5C368.296 242.529 368.796 243.529 370 244.5C370.333 244.167 370.667 243.833 371 243.5C370.852 244.825 371.018 245.992 371.5 247C369.833 247.667 368.167 247.667 366.5 247C367.604 245.869 367.271 245.035 365.5 244.5C364.808 245.025 364.308 245.692 364 246.5C363.667 246.167 363.333 245.833 363 245.5C362.679 247.832 362.845 250.165 363.5 252.5Z" fill="white"/>
<path opacity="0.902" fill-rule="evenodd" clip-rule="evenodd" d="M393.5 259.5C392.5 259.5 391.5 259.5 390.5 259.5C390.5 253.833 390.5 248.167 390.5 242.5C393.325 242.242 396.158 241.908 399 241.5C400.697 242.364 401.863 243.697 402.5 245.5C402.413 247.963 402.413 250.463 402.5 253C401.874 253.75 401.374 254.584 401 255.5C398.783 255.937 396.449 255.937 394 255.5C393.51 256.793 393.343 258.127 393.5 259.5ZM397.5 245.5C396.167 245.833 396.167 246.167 397.5 246.5C398.833 248.167 398.833 249.833 397.5 251.5C396.167 251.833 396.167 252.167 397.5 252.5C396.5 253.833 395.5 253.833 394.5 252.5C395.833 252.167 395.833 251.833 394.5 251.5C393.438 249.901 393.438 248.234 394.5 246.5C395.151 245.909 395.818 245.243 396.5 244.5C397.107 244.624 397.44 244.957 397.5 245.5Z" fill="white"/>
<path opacity="0.904" fill-rule="evenodd" clip-rule="evenodd" d="M474.5 252.5C474.735 253.097 475.235 253.43 476 253.5C477.477 252.556 478.477 251.223 479 249.5C479.671 250.252 480.504 250.586 481.5 250.5C482.354 252.035 482.354 253.368 481.5 254.5C481.167 253.167 480.833 253.167 480.5 254.5C479.167 254.833 479.167 255.167 480.5 255.5C478.035 256.179 475.369 256.512 472.5 256.5C471.155 255.653 470.155 254.487 469.5 253C470.167 250.333 470.833 247.667 471.5 245C470.795 243.443 471.461 242.277 473.5 241.5C475.371 242.767 477.204 242.767 479 241.5C479.442 243.679 480.442 244.345 482 243.5C481.852 244.825 482.018 245.992 482.5 247C480.833 247.667 479.167 247.667 477.5 247C478.604 245.869 478.271 245.035 476.5 244.5C475.808 245.025 475.308 245.692 475 246.5C474.667 246.167 474.333 245.833 474 245.5C473.821 248.188 473.988 250.522 474.5 252.5Z" fill="white"/>
<path opacity="0.882" fill-rule="evenodd" clip-rule="evenodd" d="M502.5 242.5C504.667 242.542 507 242.209 509.5 241.5C510.814 242.313 511.981 243.313 513 244.5C513.369 248.182 512.869 252.015 511.5 256C508.729 256.354 505.896 256.521 503 256.5C499.517 253.57 498.85 249.903 501 245.5C501.833 244.667 502.667 243.833 503.5 243C503.272 242.601 502.938 242.435 502.5 242.5ZM508.5 251.5C507.167 251.833 507.167 252.167 508.5 252.5C507.614 253.776 506.614 253.776 505.5 252.5C503.721 250.807 503.221 248.807 504 246.5C504.914 247.654 505.747 247.487 506.5 246C506.167 245.667 505.833 245.333 505.5 245C506.744 244.544 507.577 245.044 508 246.5C508.333 246.167 508.667 245.833 509 245.5C509.064 247.46 508.898 249.46 508.5 251.5Z" fill="white"/>
<path opacity="0.932" fill-rule="evenodd" clip-rule="evenodd" d="M550.5 255.5C549.5 255.5 548.5 255.5 547.5 255.5C547.664 252.813 547.497 250.146 547 247.5C546 246.833 545 246.167 544 245.5C543.502 248.817 543.335 252.15 543.5 255.5C542.5 255.5 541.5 255.5 540.5 255.5C540.665 252.15 540.498 248.817 540 245.5C539 246.167 538 246.833 537 247.5C536.667 250.5 536.333 253.5 536 256.5C535 255.167 534 255.167 533 256.5C532.333 251.5 532.333 246.5 533 241.5C535.97 241.435 538.97 242.102 542 243.5C542.667 242.833 543.333 242.167 544 241.5C545.667 242.833 547.333 242.833 549 241.5C549.833 242.333 550.667 243.167 551.5 244C550.54 247.73 550.207 251.563 550.5 255.5Z" fill="white"/>
<path opacity="0.923" fill-rule="evenodd" clip-rule="evenodd" d="M246.5 242.5C247.5 242.5 248.5 242.5 249.5 242.5C248.637 243.94 248.637 245.274 249.5 246.5C247.665 247.428 247.332 248.594 248.5 250C247.027 250.71 246.36 251.876 246.5 253.5C245.662 253.842 245.328 254.508 245.5 255.5C244.5 255.5 243.5 255.5 242.5 255.5C241.833 254.833 241.167 254.167 240.5 253.5C241.797 252.151 241.63 250.818 240 249.5C239.517 250.448 239.351 251.448 239.5 252.5C238.596 253.209 238.263 254.209 238.5 255.5C236.799 255.966 235.299 255.966 234 255.5C233.383 254.551 233.549 253.718 234.5 253C232.665 252.072 232.332 250.906 233.5 249.5C232.629 247.942 231.629 246.275 230.5 244.5C230.863 243.817 231.196 243.15 231.5 242.5C232.5 242.5 233.5 242.5 234.5 242.5C234.787 244.121 235.787 245.121 237.5 245.5C237.205 244.174 237.705 242.841 239 241.5C240 242.833 241 242.833 242 241.5C243.744 242.649 243.911 243.983 242.5 245.5C244.956 248.222 245.623 248.056 244.5 245C245.756 244.583 246.423 243.75 246.5 242.5ZM240.5 253.5C240.5 252.833 240.167 252.5 239.5 252.5C239.351 251.448 239.517 250.448 240 249.5C241.63 250.818 241.797 252.151 240.5 253.5Z" fill="white"/>
<path opacity="0.911" fill-rule="evenodd" clip-rule="evenodd" d="M277.5 242.5C278.011 244.195 278.678 245.861 279.5 247.5C280.594 245.685 281.594 244.019 282.5 242.5C283.496 242.586 284.329 242.252 285 241.5C284.981 243.107 284.815 244.774 284.5 246.5C283.347 247.313 283.347 248.313 284.5 249.5C283.833 249.833 283.167 250.167 282.5 250.5C284.022 252.156 283.689 253.323 281.5 254C282.451 254.718 282.617 255.551 282 256.5C280.667 255.167 279.333 255.167 278 256.5C276.934 254.848 276.434 253.181 276.5 251.5C276.167 246.167 275.833 246.167 275.5 251.5C274.698 252.952 274.198 254.618 274 256.5C272.467 256.056 270.967 255.723 269.5 255.5C271.022 253.844 270.689 252.677 268.5 252C268.957 251.586 269.291 251.086 269.5 250.5C268.629 248.942 267.629 247.275 266.5 245.5C267.127 244.583 267.461 243.583 267.5 242.5C268.873 242.343 270.207 242.51 271.5 243C270.614 244.902 270.947 246.735 272.5 248.5C273.711 247.726 273.711 246.893 272.5 246C273.167 245.333 273.833 244.667 274.5 244C273.549 243.282 273.383 242.449 274 241.5C275.011 242.337 276.178 242.67 277.5 242.5Z" fill="white"/>
<path opacity="0.01" fill-rule="evenodd" clip-rule="evenodd" d="M282.5 242.5C281.833 241.167 281.833 241.167 282.5 242.5Z" fill="white"/>
<path opacity="0.012" fill-rule="evenodd" clip-rule="evenodd" d="M277.5 241.5C278.833 242.167 278.833 242.167 277.5 241.5Z" fill="white"/>
<path opacity="0.01" fill-rule="evenodd" clip-rule="evenodd" d="M284.5 246.5C285.833 247.167 285.833 247.167 284.5 246.5Z" fill="white"/>
<path opacity="0.01" fill-rule="evenodd" clip-rule="evenodd" d="M84.5 248.5C84.8333 248.5 85.1667 248.5 85.5 248.5C85.3147 249.17 84.9813 249.17 84.5 248.5Z" fill="white"/>
<path opacity="0.012" fill-rule="evenodd" clip-rule="evenodd" d="M83.5 249.5C83.8333 249.5 84.1667 249.5 84.5 249.5C84.3147 250.17 83.9813 250.17 83.5 249.5Z" fill="white"/>
<path opacity="0.012" fill-rule="evenodd" clip-rule="evenodd" d="M370.5 249.5C371.833 250.167 371.833 250.167 370.5 249.5Z" fill="white"/>
<path opacity="0.01" fill-rule="evenodd" clip-rule="evenodd" d="M481.5 249.5C482.833 250.167 482.833 250.167 481.5 249.5Z" fill="white"/>
<path opacity="0.016" fill-rule="evenodd" clip-rule="evenodd" d="M124.5 251.5C124.833 251.5 125.167 251.5 125.5 251.5C125.315 252.17 124.981 252.17 124.5 251.5Z" fill="white"/>
<path opacity="0.01" fill-rule="evenodd" clip-rule="evenodd" d="M275.5 251.5C275.833 251.5 276.167 251.5 276.5 251.5C276.315 252.17 275.981 252.17 275.5 251.5Z" fill="white"/>
<path opacity="0.012" fill-rule="evenodd" clip-rule="evenodd" d="M306.5 251.5C307.833 252.167 307.833 252.167 306.5 251.5Z" fill="white"/>
<path opacity="0.012" fill-rule="evenodd" clip-rule="evenodd" d="M363.5 251.5C364.833 252.167 364.833 252.167 363.5 251.5Z" fill="white"/>
<path opacity="0.01" fill-rule="evenodd" clip-rule="evenodd" d="M446.5 252.5C445.833 251.167 445.833 251.167 446.5 252.5Z" fill="white"/>
<path opacity="0.01" fill-rule="evenodd" clip-rule="evenodd" d="M449.5 251.5C450.833 252.167 450.833 252.167 449.5 251.5Z" fill="white"/>
<path opacity="0.01" fill-rule="evenodd" clip-rule="evenodd" d="M474.5 251.5C475.833 252.167 475.833 252.167 474.5 251.5Z" fill="white"/>
<path opacity="0.02" fill-rule="evenodd" clip-rule="evenodd" d="M68.5 252.5C67.8333 253.167 67.8333 253.167 68.5 252.5Z" fill="white"/>
<path opacity="0.01" fill-rule="evenodd" clip-rule="evenodd" d="M136.5 253.5C136.833 253.5 137.167 253.5 137.5 253.5C137.315 254.17 136.981 254.17 136.5 253.5Z" fill="white"/>
<path opacity="0.01" fill-rule="evenodd" clip-rule="evenodd" d="M246.5 253.5C247.833 254.167 247.833 254.167 246.5 253.5Z" fill="white"/>
<path opacity="0.958" fill-rule="evenodd" clip-rule="evenodd" d="M306.5 252.5C306.5 253.5 306.5 254.5 306.5 255.5C305.5 255.5 304.5 255.5 303.5 255.5C303.5 254.5 303.5 253.5 303.5 252.5C304.5 252.5 305.5 252.5 306.5 252.5Z" fill="white"/>
<path opacity="0.844" fill-rule="evenodd" clip-rule="evenodd" d="M446.5 252.5C447.5 252.5 448.5 252.5 449.5 252.5C449.5 253.5 449.5 254.5 449.5 255.5C448.5 255.5 447.5 255.5 446.5 255.5C446.5 254.5 446.5 253.5 446.5 252.5Z" fill="white"/>
<path opacity="0.01" fill-rule="evenodd" clip-rule="evenodd" d="M210.5 254.5C211.833 255.167 211.833 255.167 210.5 254.5Z" fill="white"/>
<path opacity="0.02" fill-rule="evenodd" clip-rule="evenodd" d="M369.5 254.5C369.833 254.5 370.167 254.5 370.5 254.5C370.315 255.17 369.981 255.17 369.5 254.5Z" fill="white"/>
<path opacity="0.02" fill-rule="evenodd" clip-rule="evenodd" d="M480.5 254.5C480.833 254.5 481.167 254.5 481.5 254.5C481.315 255.17 480.981 255.17 480.5 254.5Z" fill="white"/>
<path opacity="0.024" fill-rule="evenodd" clip-rule="evenodd" d="M199.5 255.5C198.833 256.167 198.833 256.167 199.5 255.5Z" fill="white"/>
<path opacity="0.02" fill-rule="evenodd" clip-rule="evenodd" d="M202.5 255.5C203.833 256.167 203.833 256.167 202.5 255.5Z" fill="white"/>
<path opacity="0.012" fill-rule="evenodd" clip-rule="evenodd" d="M206.5 255.5C205.833 256.167 205.833 256.167 206.5 255.5Z" fill="white"/>
<path opacity="0.02" fill-rule="evenodd" clip-rule="evenodd" d="M209.5 255.5C209.833 255.5 210.167 255.5 210.5 255.5C210.315 256.17 209.981 256.17 209.5 255.5Z" fill="white"/>
<path opacity="0.01" fill-rule="evenodd" clip-rule="evenodd" d="M238.5 255.5C239.833 256.167 239.833 256.167 238.5 255.5Z" fill="white"/>
<path opacity="0.024" fill-rule="evenodd" clip-rule="evenodd" d="M242.5 255.5C241.833 256.167 241.833 256.167 242.5 255.5Z" fill="white"/>
<path opacity="0.016" fill-rule="evenodd" clip-rule="evenodd" d="M245.5 255.5C246.833 256.167 246.833 256.167 245.5 255.5Z" fill="white"/>
<path opacity="0.01" fill-rule="evenodd" clip-rule="evenodd" d="M303.5 255.5C302.833 256.167 302.833 256.167 303.5 255.5Z" fill="white"/>
<path opacity="0.024" fill-rule="evenodd" clip-rule="evenodd" d="M306.5 255.5C307.833 256.167 307.833 256.167 306.5 255.5Z" fill="white"/>
<path opacity="0.016" fill-rule="evenodd" clip-rule="evenodd" d="M339.5 255.5C340.833 256.167 340.833 256.167 339.5 255.5Z" fill="white"/>
<path opacity="0.016" fill-rule="evenodd" clip-rule="evenodd" d="M424.5 255.5C425.833 256.167 425.833 256.167 424.5 255.5Z" fill="white"/>
<path opacity="0.02" fill-rule="evenodd" clip-rule="evenodd" d="M446.5 255.5C445.833 256.167 445.833 256.167 446.5 255.5Z" fill="white"/>
<path opacity="0.02" fill-rule="evenodd" clip-rule="evenodd" d="M449.5 255.5C450.833 256.167 450.833 256.167 449.5 255.5Z" fill="white"/>
<path opacity="0.02" fill-rule="evenodd" clip-rule="evenodd" d="M540.5 255.5C539.833 256.167 539.833 256.167 540.5 255.5Z" fill="white"/>
<path opacity="0.01" fill-rule="evenodd" clip-rule="evenodd" d="M543.5 255.5C544.833 256.167 544.833 256.167 543.5 255.5Z" fill="white"/>
<path opacity="0.01" fill-rule="evenodd" clip-rule="evenodd" d="M547.5 255.5C546.833 256.167 546.833 256.167 547.5 255.5Z" fill="white"/>
<path opacity="0.02" fill-rule="evenodd" clip-rule="evenodd" d="M550.5 255.5C551.833 256.167 551.833 256.167 550.5 255.5Z" fill="white"/>
</g>
<defs>
<clipPath id="clip0_647_1198">
<rect width="588" height="260" fill="white"/>
</clipPath>
</defs>
</svg>
