<svg width="35" height="35" viewBox="0 0 35 35" fill="none" xmlns="http://www.w3.org/2000/svg">
<g clip-path="url(#clip0_718_1731)">
<path d="M3.5003 31.2539C2.5378 31.2539 1.71414 30.9115 1.02931 30.2267C0.344472 29.5418 0.00147184 28.7176 0.000305176 27.7539V6.75391C0.000305176 5.79141 0.343305 4.96774 1.02931 4.28291C1.71531 3.59807 2.53897 3.25507 3.5003 3.25391H31.5003C32.4628 3.25391 33.2871 3.59691 33.9731 4.28291C34.6591 4.96891 35.0015 5.79257 35.0003 6.75391V27.7539C35.0003 28.7164 34.6579 29.5407 33.9731 30.2267C33.2882 30.9127 32.464 31.2551 31.5003 31.2539H3.5003ZM17.5003 19.0039L31.5003 10.2539V6.75391L17.5003 15.5039L3.5003 6.75391V10.2539L17.5003 19.0039Z" fill="white"/>
</g>
<defs>
<clipPath id="clip0_718_1731">
<rect width="35" height="35" fill="white"/>
</clipPath>
</defs>
</svg>
