<svg width="35" height="35" viewBox="0 0 35 35" fill="none" xmlns="http://www.w3.org/2000/svg">
<path d="M13.3301 16.2285C13.8954 16.2285 14.3555 16.6886 14.3555 17.2539C14.3555 17.8192 13.8954 18.2793 13.3301 18.2793C12.7647 18.2793 12.3047 17.8192 12.3047 17.2539C12.3047 16.6886 12.7647 16.2285 13.3301 16.2285Z" fill="#E41F26"/>
<path d="M14.3555 12.2295V14.3541C14.0349 14.2399 13.6896 14.1777 13.3301 14.1777C11.6341 14.1777 10.2539 15.5579 10.2539 17.2539C10.2539 18.9499 11.6341 20.3301 13.3301 20.3301C13.6896 20.3301 14.0349 20.2679 14.3555 20.1537V22.2783C14.0198 22.3467 13.6767 22.3809 13.3301 22.3809C10.5034 22.3809 8.20312 20.0806 8.20312 17.2539C8.20312 14.4272 10.5034 12.127 13.3301 12.127C13.6767 12.127 14.0198 12.1611 14.3555 12.2295Z" fill="#E41F26"/>
<path d="M6.15234 17.2539C6.15234 21.2119 9.37207 24.4316 13.3301 24.4316C13.6753 24.4316 14.0178 24.4077 14.3555 24.3585V30.584H11.2793C10.7133 30.584 10.2539 30.1246 10.2539 29.5586V28.1066C9.41514 27.8681 8.60645 27.5304 7.83603 27.0977L6.80449 28.1299C6.40391 28.5305 5.75518 28.5305 5.35459 28.1299L2.4541 25.2294C2.05338 24.8287 2.05495 24.1786 2.4541 23.7795L3.48633 22.7473C3.05293 21.9775 2.71592 21.1688 2.47734 20.3301H1.02539C0.459375 20.3301 0 19.8707 0 19.3047V15.2031C0 14.6371 0.459375 14.1777 1.02539 14.1777H2.47734C2.71592 13.339 3.05293 12.5303 3.48633 11.7599L2.4541 10.7283C2.05495 10.3292 2.05338 9.67914 2.4541 9.27842L5.35459 6.37793C5.75518 5.97734 6.40391 5.97734 6.80449 6.37793L7.83672 7.41016C8.60645 6.97676 9.41514 6.63975 10.2539 6.40117V4.94922C10.2539 4.3832 10.7133 3.92383 11.2793 3.92383H14.3555V10.1493C14.0178 10.1001 13.6753 10.0762 13.3301 10.0762C9.37207 10.0762 6.15234 13.2959 6.15234 17.2539Z" fill="#E41F26"/>
<path d="M28.8477 4.52402V10.0762H34.3998L28.8477 4.52402ZM19.4824 10.0762H23.7207C24.2867 10.0762 24.7461 10.5355 24.7461 11.1016C24.7461 11.6676 24.2867 12.127 23.7207 12.127H19.4824C18.9164 12.127 18.457 11.6676 18.457 11.1016C18.457 10.5355 18.9164 10.0762 19.4824 10.0762ZM29.873 24.4316H19.4824C18.9164 24.4316 18.457 23.9723 18.457 23.4062C18.457 22.8402 18.9164 22.3809 19.4824 22.3809H29.873C30.4391 22.3809 30.8984 22.8402 30.8984 23.4062C30.8984 23.9723 30.4391 24.4316 29.873 24.4316ZM29.873 20.3301H19.4824C18.9164 20.3301 18.457 19.8707 18.457 19.3047C18.457 18.7387 18.9164 18.2793 19.4824 18.2793H29.873C30.4391 18.2793 30.8984 18.7387 30.8984 19.3047C30.8984 19.8707 30.4391 20.3301 29.873 20.3301ZM29.873 16.2285H19.4824C18.9164 16.2285 18.457 15.7691 18.457 15.2031C18.457 14.6371 18.9164 14.1777 19.4824 14.1777H29.873C30.4391 14.1777 30.8984 14.6371 30.8984 15.2031C30.8984 15.7691 30.4391 16.2285 29.873 16.2285ZM27.8223 12.127C27.2563 12.127 26.7969 11.6676 26.7969 11.1016V3.92383H16.4062V30.584H33.9746C34.5406 30.584 35 30.1246 35 29.5586V12.127H27.8223Z" fill="#E41F26"/>
</svg>
