<svg width="35" height="35" viewBox="0 0 35 35" fill="none" xmlns="http://www.w3.org/2000/svg">
<path d="M6.67433 15.2699H1C1.08547 18.6304 2.28967 21.7173 4.2522 24.1729C5.40054 23.6304 6.63156 23.1734 7.92547 22.8071C7.14514 20.5391 6.71198 17.9608 6.67433 15.2699Z" fill="#FFBDBF"/>
<path d="M24.8371 10.9886C25.4299 10.6717 26.1798 10.7527 26.6903 11.2342C26.74 11.2812 26.802 11.3423 26.8762 11.4157C27.3878 11.9215 28.6178 13.1376 30.7771 14.0908C30.608 10.8897 29.4236 7.95371 27.5412 5.59845C26.3929 6.14099 25.1619 6.59802 23.868 6.96431C24.3006 8.22153 24.6262 9.5742 24.8371 10.9886Z" fill="#FFBDBF"/>
<path d="M22.4812 3.88453C22.903 4.61382 23.2777 5.40228 23.603 6.23869C24.8197 5.89747 25.9668 5.47767 27.0287 4.99049C25.0581 2.77605 22.4387 1.15168 19.4715 0.418396C20.5882 1.20932 21.6095 2.3774 22.4812 3.88453Z" fill="#FFBDBF"/>
<path d="M9.31289 3.88455C10.1846 2.37742 11.2059 1.20933 12.3226 0.418396C9.35543 1.1517 6.73603 2.77607 4.76538 4.99051C5.82727 5.47769 6.97446 5.89749 8.19109 6.23871C8.51639 5.40231 8.8911 4.61384 9.31289 3.88455Z" fill="#FFBDBF"/>
<path d="M9.31292 25.8869C8.89113 25.1576 8.51641 24.3691 8.19111 23.5327C6.97448 23.8739 5.82727 24.2937 4.76538 24.7809C6.73605 26.9954 9.35547 28.6198 12.3227 29.3531C11.2059 28.5621 10.1846 27.394 9.31292 25.8869Z" fill="#FFBDBF"/>
<path d="M7.92547 6.96429C6.63158 6.598 5.40057 6.14097 4.25223 5.59845C2.28967 8.05412 1.08547 11.141 1 14.5015H6.67433C6.71197 11.8106 7.14513 9.23223 7.92547 6.96429Z" fill="#FFBDBF"/>
<path d="M16.2809 6.10352e-05V7.26267C18.6003 7.23363 20.8174 6.94241 22.8581 6.43497C21.3992 2.71485 19.006 0.215906 16.2809 6.10352e-05Z" fill="#FFBDBF"/>
<path d="M8.93524 6.43499C10.976 6.94244 13.1931 7.23363 15.5125 7.26269V6.10352e-05C12.7874 0.215906 10.3942 2.71485 8.93524 6.43499Z" fill="#FFBDBF"/>
<path d="M16.2809 29.7713C16.4171 29.7605 16.5524 29.7439 16.6869 29.7218C16.505 29.3183 16.3683 28.8923 16.2809 28.4504V29.7713Z" fill="#FFBDBF"/>
<path d="M8.66695 22.6091C10.8208 22.0665 13.1319 21.7691 15.5128 21.7402V15.2699H7.4429C7.4816 17.9508 7.92409 20.4579 8.66695 22.6091Z" fill="#FFBDBF"/>
<path d="M7.4429 14.5015H15.5128V8.03119C13.1319 8.00229 10.8208 7.70487 8.66697 7.16229C7.92409 9.31351 7.4816 11.8206 7.4429 14.5015Z" fill="#FFBDBF"/>
<path d="M24.1431 11.5772C23.9389 9.99591 23.5918 8.50925 23.1267 7.16229C20.9728 7.70488 18.6618 8.00229 16.2809 8.03119V14.5015H19.3604C21.9454 13.6017 23.4573 12.2443 24.1431 11.5772Z" fill="#FFBDBF"/>
<path d="M15.5125 29.7713V22.5086C13.1931 22.5376 10.976 22.8289 8.93524 23.3363C10.3942 27.0565 12.7874 29.5554 15.5125 29.7713Z" fill="#FFBDBF"/>
<path d="M19.3731 27.4576C19.4271 28.3749 19.9386 29.1894 20.7415 29.6365L25.2078 32.1241V23.6683H19.1495L19.3731 27.4576Z" fill="#FFBDBF"/>
<path d="M25.9761 32.124L30.4426 29.6365C31.2453 29.1893 31.7568 28.3747 31.8109 27.4576L32.0345 23.6683H25.9761V32.124Z" fill="#FFBDBF"/>
<path d="M25.9761 22.8999H32.0798L32.3689 17.9997C29.938 17.4015 27.7929 16.3632 25.9761 14.9073V22.8999Z" fill="#FFBDBF"/>
<path d="M19.1043 22.8997H25.208V14.9071C23.3912 16.363 21.246 17.4013 18.8152 17.9995L19.1043 22.8997Z" fill="#FFBDBF"/>
<path d="M34.1863 15.8931C29.5159 15.1062 27.1227 12.7399 26.3363 11.9623C26.267 11.8936 26.2095 11.8368 26.1631 11.7932C26.0031 11.6422 25.7976 11.5667 25.592 11.5667C25.3866 11.5667 25.1811 11.6421 25.021 11.7931C24.975 11.8366 24.9172 11.8935 24.8481 11.9619C24.0614 12.7398 21.6681 15.1062 16.9978 15.8931C16.578 15.9639 16.2805 16.3376 16.3055 16.7625L16.9448 27.6009C17.0482 29.3523 18.0251 30.9077 19.5579 31.7614L25.1873 34.8967C25.4343 35.0344 25.7499 35.0344 25.9968 34.8968L31.6261 31.7614C33.159 30.9078 34.1358 29.3524 34.2391 27.6008L34.8786 16.7625C34.9037 16.3376 34.6061 15.9639 34.1863 15.8931ZM32.5781 27.5028C32.5086 28.6836 31.85 29.7321 30.8166 30.3078L25.779 33.1135C25.7209 33.1459 25.6565 33.162 25.592 33.162C25.5276 33.162 25.4632 33.1459 25.4051 33.1135L20.3676 30.3078C19.3341 29.7323 18.6755 28.6837 18.6059 27.5028L18.0289 17.7229C18.0179 17.5353 18.1439 17.3674 18.327 17.3256C21.0549 16.7033 23.4129 15.5146 25.3357 13.7926C25.4817 13.6618 25.7025 13.6619 25.8484 13.7926C27.7709 15.5146 30.129 16.7033 32.857 17.3256C33.0401 17.3674 33.1662 17.5353 33.1551 17.7229L32.5781 27.5028Z" fill="#FFBDBF"/>
</svg>
