<svg width="512" height="512" viewBox="0 0 512 512" fill="none" xmlns="http://www.w3.org/2000/svg">
<path fill-rule="evenodd" clip-rule="evenodd" d="M318.692 108.237C308.632 116.996 298.652 125.914 288.751 134.992C289.718 149.18 292.054 163.195 295.759 177.036C295.334 178.31 294.909 179.584 294.485 180.858C281.744 173.638 269.003 166.419 256.263 159.199C243.144 166.59 230.19 174.234 217.404 182.132C219.432 167.418 222.193 152.766 225.685 138.177C214.861 127.14 203.818 116.31 192.56 105.688C207.888 104.268 223.177 102.57 238.426 100.592C243.712 85.3701 249.871 70.506 256.9 56C263.121 71.0668 269.704 85.9309 276.648 100.592C291.475 102.558 306.34 104.469 321.24 106.325C320.547 107.239 319.697 107.876 318.692 108.237Z" fill="#FCFBFB"/>
<path fill-rule="evenodd" clip-rule="evenodd" d="M396.409 112.059C398.929 119.862 402.327 127.294 406.602 134.355C418.068 135.629 429.535 136.903 441.002 138.177C432.335 145.568 424.054 153.425 416.157 161.747C417.449 173.704 419.148 185.596 421.254 197.421C411.335 191.307 401.142 185.786 390.676 180.858C380.466 185.86 370.486 191.381 360.736 197.421C360.311 196.784 359.886 196.147 359.462 195.51C362.801 184.022 364.712 172.342 365.195 160.473C356.913 153.041 348.632 145.609 340.351 138.177C352.356 137.221 364.247 135.522 376.024 133.081C380.377 124.59 384.199 115.885 387.491 106.962C388.839 105.561 389.901 103.862 390.676 101.866C392.963 105.177 394.874 108.575 396.409 112.059Z" fill="#FBFAFA"/>
<path fill-rule="evenodd" clip-rule="evenodd" d="M127.582 112.059C130.798 119.553 134.195 126.984 137.775 134.355C149.329 135.238 160.796 136.723 172.174 138.814C164.084 146.693 155.803 154.337 147.33 161.747C148.893 172.122 150.805 182.526 153.063 192.962C152.639 194.023 152.214 195.085 151.789 196.147C141.815 190.948 132.047 185.428 122.486 179.584C112.925 185.428 103.157 190.948 93.1825 196.147C92.7579 195.297 92.3331 194.448 91.9084 193.599C94.0475 182.941 95.9586 172.324 97.6417 161.747C88.9357 153.89 80.2295 146.034 71.5234 138.177C80.8849 137.16 90.2279 136.099 99.5528 134.992C102.49 134.364 105.463 133.939 108.471 133.718C112.211 123.786 116.458 114.018 121.212 104.414C122.061 102.715 122.911 102.715 123.76 104.414C125.051 106.997 126.325 109.545 127.582 112.059Z" fill="#FCFBFB"/>
<path fill-rule="evenodd" clip-rule="evenodd" d="M374.75 340.116C380.635 344.109 382.546 349.631 380.483 356.679C375.985 363.918 369.826 365.829 362.009 362.412C346.503 353.171 330.79 344.253 314.869 335.657C308.066 334.397 304.88 337.158 305.314 343.938C319.439 353.447 334.091 362.152 349.269 370.056C355.28 374.316 357.191 380.049 355.002 387.256C353.941 390.017 352.03 391.928 349.269 392.99C345.447 393.839 341.624 393.839 337.802 392.99C320.596 382.899 303.183 373.131 285.566 363.686C275.655 362.327 273.107 365.937 277.921 374.516C291.936 382.373 305.951 390.229 319.965 398.086C326.551 402.94 328.036 409.098 324.425 416.56C320.098 421.278 314.789 422.763 308.499 421.019C295.542 414.333 283.225 406.688 271.551 398.086C264.945 394.968 258.15 394.331 251.166 396.175C244.346 381.087 232.879 375.141 216.766 378.338C211.126 363.833 200.509 357.462 184.915 359.227C180.664 340.949 169.198 333.518 150.515 336.931C147.86 337.819 145.736 339.306 144.145 341.39C142.876 341.28 141.814 341.706 140.96 342.664C139.479 335.24 135.868 329.083 130.13 324.19C115.686 318.239 101.672 311.656 88.0859 304.442C101.37 275.754 114.959 247.301 128.856 219.08C143.993 226.437 159.282 233.444 174.722 240.102C181.517 240.952 188.313 240.952 195.107 240.102C205.304 237.214 215.709 235.303 226.322 234.369C233.212 234.557 239.795 236.044 246.07 238.828C227.658 257.682 207.06 273.607 184.278 286.605C183.316 290.177 183.74 293.575 185.552 296.798C190.011 301.257 194.47 305.716 198.929 310.176C210.537 317.964 223.278 320.512 237.151 317.82C254.385 312.601 271.373 306.657 288.114 299.983C297.253 298.445 305.747 300.145 313.595 305.079C333.807 317.095 354.192 328.774 374.75 340.116Z" fill="#FDFCFC"/>
<path fill-rule="evenodd" clip-rule="evenodd" d="M388.765 229.272C390.357 229.371 391.419 230.22 391.95 231.821C402.851 260.841 414.105 289.72 425.713 318.457C413.899 324.59 401.796 330.111 389.402 335.02C362.908 317.629 335.515 301.703 307.225 287.242C299.58 286.393 291.936 286.393 284.292 287.242C270.518 291.834 256.929 296.93 243.522 302.531C231.166 307.48 219.275 306.63 207.848 299.983C205.49 297.837 203.366 295.502 201.478 292.976C221.433 279.194 240.119 263.693 257.536 246.472C269.674 236.197 283.689 231.526 299.58 232.458C311.071 235.013 322.113 238.836 332.706 243.924C342.54 247.929 352.309 247.929 362.009 243.924C371.007 239.005 379.925 234.12 388.765 229.272Z" fill="#FDFCFC"/>
<path fill-rule="evenodd" clip-rule="evenodd" d="M154.338 349.034C167.124 348.438 172.433 354.382 170.264 366.871C166.13 375.565 161.671 384.059 156.886 392.352C149.448 399.431 142.441 399.006 135.864 391.078C134.053 387.855 133.628 384.457 134.59 380.885C139.587 372.168 144.258 363.25 148.605 354.13C150.729 352.559 152.64 350.86 154.338 349.034Z" fill="#FAF9F9"/>
<path fill-rule="evenodd" clip-rule="evenodd" d="M186.189 371.967C198.975 371.371 204.284 377.316 202.115 389.804C196.169 400.846 190.224 411.887 184.278 422.93C180.392 427.554 175.509 429.041 169.627 427.389C162.587 423.67 160.252 417.936 162.619 410.189C168.565 399.147 174.51 388.106 180.456 377.063C182.236 375.063 184.147 373.363 186.189 371.967Z" fill="#FBFAFA"/>
<path fill-rule="evenodd" clip-rule="evenodd" d="M220.589 389.805C232.941 389.623 238.25 395.569 236.515 407.642C231.518 416.359 226.847 425.277 222.5 434.397C213.682 443.401 206.038 442.551 199.567 431.849C198.717 428.877 198.717 425.903 199.567 422.93C204.138 415.063 208.386 406.993 212.308 398.723C214.466 395.082 217.227 392.11 220.589 389.805Z" fill="#FAF8F8"/>
<path fill-rule="evenodd" clip-rule="evenodd" d="M253.714 408.916C268.188 407.878 273.498 414.249 269.64 428.026C265.393 435.671 261.145 443.315 256.899 450.96C249.619 458.082 242.824 457.656 236.514 449.686C234.658 446.034 234.233 442.212 235.24 438.219C239.811 430.352 244.059 422.282 247.981 414.012C249.76 412.012 251.672 410.312 253.714 408.916Z" fill="#FAF9F9"/>
<path fill-rule="evenodd" clip-rule="evenodd" d="M284.291 422.93C291.106 425.798 296.84 430.045 301.491 435.671C303.188 448.836 297.455 454.143 284.291 451.597C280.606 450.398 277.633 448.275 275.373 445.226C279.961 438.395 282.933 430.963 284.291 422.93Z" fill="#FBF9F9"/>
</svg>
