<svg width="35" height="35" viewBox="0 0 35 35" fill="none" xmlns="http://www.w3.org/2000/svg">
<g clip-path="url(#clip0_718_1739)">
<path d="M32.9587 34.7539C28.9077 34.7539 24.9054 33.8711 20.9517 32.1056C16.998 30.34 13.4008 27.8362 10.1601 24.5942C6.91932 21.3521 4.41617 17.7549 2.65061 13.8025C0.885058 9.85011 0.00163199 5.8478 0.000335693 1.79557C0.000335693 1.21224 0.19478 0.726128 0.583669 0.337239C0.972558 -0.0516494 1.45867 -0.246094 2.042 -0.246094H9.917C10.3707 -0.246094 10.7758 -0.0918347 11.1323 0.216684C11.4888 0.525202 11.6994 0.889462 11.7642 1.30946L13.0281 8.11502C13.0929 8.63354 13.0767 9.07104 12.9795 9.42752C12.8823 9.784 12.704 10.0919 12.4448 10.3511L7.7295 15.115C8.37765 16.3141 9.147 17.4723 10.0376 18.5897C10.9281 19.7071 11.9088 20.785 12.9795 21.8234C13.9841 22.828 15.0374 23.76 16.1392 24.6195C17.2411 25.4789 18.4077 26.2645 19.6392 26.9761L24.2087 22.4067C24.5003 22.115 24.8814 21.8966 25.352 21.7514C25.8226 21.6062 26.284 21.5654 26.7364 21.6289L33.4448 22.99C33.8985 23.1196 34.2712 23.3549 34.5628 23.6958C34.8545 24.0368 35.0003 24.4172 35.0003 24.8372V32.7122C35.0003 33.2956 34.8059 33.7817 34.417 34.1706C34.0281 34.5595 33.542 34.7539 32.9587 34.7539Z" fill="white"/>
</g>
<defs>
<clipPath id="clip0_718_1739">
<rect width="35" height="35" fill="white"/>
</clipPath>
</defs>
</svg>
